<?xml version="1.0" encoding="utf-8"?>
<!-- Generator: Adobe Illustrator 24.0.1, SVG Export Plug-In . SVG Version: 6.00 Build 0)  -->
<svg version="1.1" id="Layer_1" xmlns="http://www.w3.org/2000/svg" xmlns:xlink="http://www.w3.org/1999/xlink" x="0px" y="0px"
	 viewBox="0 0 300 300" style="enable-background:new 0 0 300 300;" xml:space="preserve">
<style type="text/css">
	.st0{fill:#FFFFFF;}
</style>
<g>
	<path class="st0" d="M103.79,171.87C103.79,171.87,103.79,171.87,103.79,171.87C103.72,171.76,103.76,171.81,103.79,171.87z"/>
	<circle class="st0" cx="147.26" cy="224.52" r="14.05"/>
	<circle class="st0" cx="89.57" cy="156.02" r="13.93"/>
	
		<ellipse transform="matrix(0.3827 -0.9239 0.9239 0.3827 -88.5135 122.6859)" class="st0" cx="47.55" cy="127.58" rx="10.13" ry="10.13"/>
	<circle class="st0" cx="86.24" cy="219.23" r="10.59"/>
	
		<ellipse transform="matrix(0.3827 -0.9239 0.9239 0.3827 -156.2611 281.5062)" class="st0" cx="132.52" cy="257.68" rx="9.9" ry="9.9"/>
	
		<ellipse transform="matrix(0.3827 -0.9239 0.9239 0.3827 -177.6684 239.8031)" class="st0" cx="90.61" cy="252.85" rx="6.22" ry="6.22"/>
	
		<ellipse transform="matrix(0.7071 -0.7071 0.7071 0.7071 -151.156 107.1528)" class="st0" cx="53.77" cy="236.04" rx="6.22" ry="6.22"/>
	<circle class="st0" cx="47.55" cy="169.95" r="6.22"/>
	
		<ellipse transform="matrix(0.9732 -0.2298 0.2298 0.9732 -35.2142 9.596)" class="st0" cx="23.6" cy="156.02" rx="6.22" ry="6.22"/>
	<circle class="st0" cx="7.94" cy="219.23" r="6.22"/>
	<g>
		<path class="st0" d="M215.42,132.53h-38v21.88h38.23c10.13,0,8.75-11.97,8.75-11.97C224.63,133.45,215.42,132.53,215.42,132.53z"
			/>
		<path class="st0" d="M192.31,10c-54.23,0-98.86,41.06-104.54,93.78h-3.53v0.07c-0.46-0.04-0.92-0.07-1.38-0.07
			c-8.73,0-15.81,7.08-15.81,15.81c0,8.73,7.08,15.81,15.81,15.81c0.47,0,0.93,0.04,1.38,0h2.92h1.96c1.45-0.13,2.77,0,4.18,0
			c10.68,0,19.34,8.66,19.34,19.34c0,6.99-3.3,13.72-8.85,17.12c0.07,0.11,0.03,0.05,0,0c-6.14,4.38-10.16,11.55-10.16,19.66
			c0,13.34,10.82,24.16,24.16,24.16c8.47,0,15.91-4.37,20.22-10.96c3.88-4.54,9.64-7.42,16.08-7.42c11.7,0,21.18,9.48,21.18,21.18
			c0,0.15-0.02,0.29-0.02,0.44c0.01,0,0.01,0,0.02,0v6.75c0,8.48,6.87,15.35,15.35,15.35c8.48,0,15.35-6.87,15.35-15.35v-6.27
			c51.61-6.7,91.49-50.8,91.49-104.25C297.47,57.08,250.39,10,192.31,10z M253.19,153.02c0,0,3.57,30.63-36.15,30.63h-46.29
			c0,0-22.34-2.29-22.34-23.03l-1.15-58.03h50.2c0,0,9.41-0.91,8.98-9.9v-3.91c0,0-1.84-8.06-7.37-8.06h-28.09
			c0,0-21.68,0.24-23.72-20.72v-8.75h55.27c0,0,32.9,3.93,32.7,31.78v14.74c0,0,0,8.29-3.22,9.9c0,0,19.11,4.84,21.19,24.87V153.02z
			"/>
	</g>
</g>
</svg>
