<svg id="Layer_1" data-name="Layer 1" xmlns="http://www.w3.org/2000/svg" xmlns:xlink="http://www.w3.org/1999/xlink" viewBox="0 0 463.69 363.04"><defs><style>.cls-1{fill:none;}.cls-2{clip-path:url(#clip-path);}.cls-3{fill:#f1f1f4;}.cls-4{fill:#e0f3ff;}.cls-5{fill:url(#linear-gradient);}.cls-6{fill:url(#linear-gradient-2);}.cls-7{fill:#e5e2ff;}.cls-8{fill:url(#linear-gradient-3);}.cls-10,.cls-9{opacity:0.62;}.cls-10,.cls-103,.cls-11,.cls-111,.cls-113,.cls-117,.cls-14,.cls-15,.cls-18,.cls-19,.cls-20,.cls-23,.cls-25,.cls-31,.cls-34,.cls-36,.cls-39,.cls-40,.cls-41,.cls-42,.cls-43,.cls-44,.cls-45,.cls-46,.cls-47,.cls-48,.cls-49,.cls-50,.cls-51,.cls-52,.cls-53,.cls-54,.cls-55,.cls-57,.cls-58,.cls-59,.cls-60,.cls-61,.cls-62,.cls-66,.cls-77,.cls-80,.cls-81,.cls-82,.cls-86,.cls-87,.cls-9,.cls-92,.cls-94,.cls-95,.cls-96,.cls-97,.cls-98{isolation:isolate;}.cls-9{fill:url(#linear-gradient-4);}.cls-10{fill:url(#linear-gradient-5);}.cls-11,.cls-117,.cls-14,.cls-15,.cls-23,.cls-25,.cls-40,.cls-41,.cls-42,.cls-43,.cls-44,.cls-45,.cls-46,.cls-47,.cls-48,.cls-50,.cls-52,.cls-53,.cls-54,.cls-55,.cls-57,.cls-59,.cls-60,.cls-61,.cls-62,.cls-82{opacity:0.5;}.cls-11{fill:url(#linear-gradient-6);}.cls-12{fill:#fff;}.cls-13{fill:url(#linear-gradient-7);}.cls-14{fill:url(#radial-gradient);}.cls-15{fill:url(#radial-gradient-2);}.cls-16{fill:url(#linear-gradient-8);}.cls-17{fill:url(#linear-gradient-9);}.cls-18,.cls-19,.cls-20,.cls-49{opacity:0.76;}.cls-18{fill:url(#linear-gradient-10);}.cls-19{fill:url(#linear-gradient-11);}.cls-20{fill:url(#linear-gradient-12);}.cls-21{fill:#fe9083;}.cls-22{fill:url(#linear-gradient-13);}.cls-23{fill:url(#linear-gradient-14);}.cls-24{fill:url(#linear-gradient-15);}.cls-25{fill:url(#linear-gradient-16);}.cls-26{fill:url(#linear-gradient-17);}.cls-27{fill:url(#linear-gradient-18);}.cls-28{fill:#cb4d7a;}.cls-29{fill:#ee8183;}.cls-30{fill:url(#linear-gradient-19);}.cls-31,.cls-36,.cls-66,.cls-77,.cls-80,.cls-81,.cls-92,.cls-94{opacity:0.6;}.cls-31{fill:url(#linear-gradient-20);}.cls-32{fill:url(#linear-gradient-21);}.cls-33{fill:#e28183;}.cls-34,.cls-39{opacity:0.91;}.cls-34{fill:url(#linear-gradient-22);}.cls-35{fill:url(#linear-gradient-23);}.cls-36{fill:url(#linear-gradient-24);}.cls-37{fill:url(#linear-gradient-25);}.cls-38{fill:url(#linear-gradient-26);}.cls-39{fill:url(#linear-gradient-27);}.cls-40{fill:url(#linear-gradient-28);}.cls-41{fill:url(#linear-gradient-29);}.cls-42{fill:url(#linear-gradient-30);}.cls-43{fill:url(#linear-gradient-31);}.cls-44{fill:url(#linear-gradient-32);}.cls-45{fill:url(#linear-gradient-33);}.cls-46{fill:url(#linear-gradient-34);}.cls-47{fill:url(#linear-gradient-35);}.cls-48{fill:url(#linear-gradient-36);}.cls-49{fill:url(#linear-gradient-37);}.cls-50{fill:url(#linear-gradient-38);}.cls-51,.cls-58,.cls-95,.cls-96,.cls-97,.cls-98{opacity:0.3;}.cls-51{fill:url(#linear-gradient-39);}.cls-52{fill:url(#linear-gradient-40);}.cls-53{fill:url(#linear-gradient-41);}.cls-54{fill:url(#linear-gradient-42);}.cls-55{fill:url(#linear-gradient-43);}.cls-56{fill:url(#linear-gradient-44);}.cls-57{fill:url(#linear-gradient-45);}.cls-58{fill:url(#linear-gradient-46);}.cls-59{fill:url(#linear-gradient-47);}.cls-60{fill:url(#linear-gradient-48);}.cls-61{fill:url(#linear-gradient-49);}.cls-62{fill:#7a4ac0;}.cls-63{fill:url(#linear-gradient-50);}.cls-64{fill:url(#linear-gradient-51);}.cls-65{fill:url(#linear-gradient-52);}.cls-66{fill:url(#linear-gradient-53);}.cls-67{fill:#38368e;}.cls-68{fill:url(#linear-gradient-54);}.cls-69{fill:url(#linear-gradient-55);}.cls-70{fill:#ffebed;}.cls-71{fill:#7f9ec9;}.cls-72{fill:#131163;}.cls-73{fill:#c6659c;}.cls-74{fill:#cb5f7d;}.cls-75{fill:#9f4a8b;}.cls-76{fill:#ffbcaf;}.cls-77{fill:url(#linear-gradient-56);}.cls-78{fill:url(#linear-gradient-57);}.cls-79{fill:#d2726c;}.cls-80{fill:url(#linear-gradient-58);}.cls-81{fill:url(#linear-gradient-59);}.cls-82{fill:url(#linear-gradient-60);}.cls-83{fill:url(#linear-gradient-61);}.cls-84{fill:url(#linear-gradient-62);}.cls-85{fill:url(#linear-gradient-63);}.cls-86,.cls-87{opacity:0.8;}.cls-86{fill:url(#linear-gradient-64);}.cls-87{fill:url(#linear-gradient-65);}.cls-88{fill:#34c7ff;}.cls-89{fill:url(#linear-gradient-66);}.cls-90{fill:url(#linear-gradient-67);}.cls-91{fill:url(#linear-gradient-68);}.cls-92{fill:#36d1f7;}.cls-93{fill:#744ca2;}.cls-94{fill:url(#linear-gradient-69);}.cls-95{fill:url(#linear-gradient-70);}.cls-96{fill:url(#linear-gradient-71);}.cls-97{fill:url(#linear-gradient-72);}.cls-98{fill:url(#linear-gradient-73);}.cls-99{fill:#d1d4fb;}.cls-100{fill:#e0ffff;}.cls-101{fill:url(#linear-gradient-74);}.cls-102{fill:url(#linear-gradient-75);}.cls-103{opacity:0.81;fill:url(#linear-gradient-76);}.cls-104{fill:#473da2;}.cls-105{fill:url(#linear-gradient-77);}.cls-106{fill:url(#linear-gradient-78);}.cls-107{fill:url(#linear-gradient-79);}.cls-108{fill:url(#linear-gradient-80);}.cls-109{fill:url(#linear-gradient-81);}.cls-110{fill:url(#linear-gradient-82);}.cls-111,.cls-113{opacity:0.73;}.cls-111{fill:url(#linear-gradient-83);}.cls-112{fill:#953da2;}.cls-113{fill:url(#linear-gradient-84);}.cls-114,.cls-115,.cls-116,.cls-117,.cls-118,.cls-122,.cls-123,.cls-124,.cls-125{fill-rule:evenodd;}.cls-114{fill:url(#linear-gradient-85);}.cls-115{fill:url(#linear-gradient-86);}.cls-116{fill:url(#linear-gradient-87);}.cls-117{fill:#601734;}.cls-118{fill:#b3d9ff;}.cls-119{fill:#ff1d9c;}.cls-120{fill:#6877ff;}.cls-121{fill:#4f31e0;}.cls-122{fill:url(#linear-gradient-88);}.cls-123{fill:url(#linear-gradient-89);}.cls-124{fill:url(#linear-gradient-90);}.cls-125{fill:url(#linear-gradient-91);}</style><clipPath id="clip-path" transform="translate(-70.27 -35.57)"><rect class="cls-1" x="4.97" y="6.61" width="600" height="400"/></clipPath><linearGradient id="linear-gradient" x1="56.32" y1="158.84" x2="56.32" y2="230.03" gradientTransform="matrix(0.91, -0.42, -0.42, -0.91, 188.84, 411.96)" gradientUnits="userSpaceOnUse"><stop offset="0" stop-color="#dbccff"/><stop offset="1" stop-color="#d1bbff"/></linearGradient><linearGradient id="linear-gradient-2" x1="56.32" y1="156.06" x2="56.32" y2="227.25" gradientTransform="matrix(0.91, -0.42, -0.42, -0.91, 188.84, 411.96)" gradientUnits="userSpaceOnUse"><stop offset="0" stop-color="#b5a6e7"/><stop offset="1" stop-color="#7760bf"/></linearGradient><linearGradient id="linear-gradient-3" x1="56.39" y1="173.76" x2="56.39" y2="203.77" xlink:href="#linear-gradient-2"/><linearGradient id="linear-gradient-4" x1="51.36" y1="204.32" x2="59.88" y2="204.32" gradientTransform="matrix(0.91, -0.42, -0.42, -0.91, 188.84, 411.96)" gradientUnits="userSpaceOnUse"><stop offset="0" stop-color="#8b8be0"/><stop offset="1" stop-color="#a177b7"/></linearGradient><linearGradient id="linear-gradient-5" x1="56.37" y1="201.19" x2="56.37" y2="206.35" gradientTransform="matrix(0.91, -0.42, -0.42, -0.91, 188.84, 411.96)" gradientUnits="userSpaceOnUse"><stop offset="0" stop-color="#fff"/><stop offset="1" stop-color="#a177b7"/></linearGradient><linearGradient id="linear-gradient-6" x1="60.95" y1="170.7" x2="60.95" y2="203.78" gradientTransform="matrix(0.91, -0.42, -0.42, -0.91, 188.84, 411.96)" gradientUnits="userSpaceOnUse"><stop offset="0"/><stop offset="1" stop-color="#fff"/></linearGradient><linearGradient id="linear-gradient-7" x1="285.27" y1="15.28" x2="285.27" y2="104.48" gradientTransform="matrix(1, 0, 0, -1, 0, 413.89)" gradientUnits="userSpaceOnUse"><stop offset="0" stop-color="#6456c0"/><stop offset="1" stop-color="#5f2c95"/></linearGradient><radialGradient id="radial-gradient" cx="313.92" cy="146.64" r="27.03" gradientTransform="matrix(0, 0.66, 1.71, 0, -2.83, 145.38)" gradientUnits="userSpaceOnUse"><stop offset="0" stop-color="#4b474b"/><stop offset="1"/></radialGradient><radialGradient id="radial-gradient-2" cx="268.48" cy="163.09" r="27.03" gradientTransform="matrix(0.66, 0, 0, -1.71, 141.47, 630.69)" xlink:href="#radial-gradient"/><linearGradient id="linear-gradient-8" x1="256.4" y1="46.64" x2="279.79" y2="46.64" gradientTransform="matrix(1, 0, 0, -1, 0, 413.89)" gradientUnits="userSpaceOnUse"><stop offset="0" stop-color="#9e8cef"/><stop offset="1" stop-color="#caafee"/></linearGradient><linearGradient id="linear-gradient-9" x1="340.56" y1="46.64" x2="363.96" y2="46.64" gradientTransform="translate(651.63 413.89) rotate(180)" xlink:href="#linear-gradient-8"/><linearGradient id="linear-gradient-10" x1="282.15" y1="15.28" x2="282.15" y2="104.48" gradientTransform="matrix(1, 0, 0, -1, 0, 413.89)" gradientUnits="userSpaceOnUse"><stop offset="0" stop-color="#ccf"/><stop offset="1" stop-color="#755cbb"/></linearGradient><linearGradient id="linear-gradient-11" x1="292.52" y1="59.89" x2="292.52" y2="84.22" gradientTransform="matrix(1, 0, 0, -1, -70.27, 378.32)" xlink:href="#linear-gradient-10"/><linearGradient id="linear-gradient-12" x1="264.34" y1="68.83" x2="264.34" y2="92.67" gradientTransform="matrix(1, 0, 0, -1, -70.27, 378.32)" xlink:href="#linear-gradient-10"/><linearGradient id="linear-gradient-13" x1="288.57" y1="238.83" x2="288.57" y2="274.44" gradientTransform="matrix(1, 0, 0, -1, 0, 413.89)" gradientUnits="userSpaceOnUse"><stop offset="0" stop-color="#d5cdf8"/><stop offset="1" stop-color="#f3edfb"/></linearGradient><linearGradient id="linear-gradient-14" x1="270.18" y1="256.63" x2="306.82" y2="256.63" xlink:href="#linear-gradient-10"/><linearGradient id="linear-gradient-15" x1="278.02" y1="96.48" x2="278.02" y2="275.99" xlink:href="#linear-gradient-8"/><linearGradient id="linear-gradient-16" x1="203.56" y1="208.38" x2="247.26" y2="208.38" xlink:href="#linear-gradient-10"/><linearGradient id="linear-gradient-17" x1="202.21" y1="158.11" x2="202.21" y2="242.02" gradientTransform="matrix(1, 0, 0, -1, 0, 413.89)" gradientUnits="userSpaceOnUse"><stop offset="0" stop-color="#9e8cef"/><stop offset="1" stop-color="#dac7f3"/></linearGradient><linearGradient id="linear-gradient-18" x1="346.5" y1="182.28" x2="402.81" y2="182.28" gradientTransform="matrix(1, 0, 0, -1, 0, 413.89)" gradientUnits="userSpaceOnUse"><stop offset="0" stop-color="#a999f1"/><stop offset="1" stop-color="#dac7f3"/></linearGradient><linearGradient id="linear-gradient-19" x1="183.92" y1="253.45" x2="183.92" y2="275.59" gradientTransform="matrix(1, 0, 0, -1, 0, 413.89)" gradientUnits="userSpaceOnUse"><stop offset="0.02" stop-color="#ffc2a9"/><stop offset="1" stop-color="#ff9595"/></linearGradient><linearGradient id="linear-gradient-20" x1="197.88" y1="253.99" x2="197.88" y2="290.61" gradientTransform="matrix(1, 0, 0, -1, 0, 413.89)" gradientUnits="userSpaceOnUse"><stop offset="0" stop-color="#ffeadb"/><stop offset="0.99" stop-color="#c27cb6"/></linearGradient><linearGradient id="linear-gradient-21" x1="196.64" y1="229.07" x2="196.64" y2="285.5" xlink:href="#linear-gradient-19"/><linearGradient id="linear-gradient-22" x1="186.54" y1="237.88" x2="204.29" y2="237.88" gradientTransform="matrix(1, 0, 0, -1, 0, 413.89)" gradientUnits="userSpaceOnUse"><stop offset="0.02" stop-color="#d1a1d6"/><stop offset="0.99" stop-color="#bd89c4"/></linearGradient><linearGradient id="linear-gradient-23" x1="403.97" y1="194.68" x2="403.97" y2="270.13" xlink:href="#linear-gradient-19"/><linearGradient id="linear-gradient-24" x1="412.87" y1="218.87" x2="412.87" y2="256.38" xlink:href="#linear-gradient-20"/><linearGradient id="linear-gradient-25" x1="420.3" y1="231.82" x2="420.3" y2="248.63" gradientTransform="matrix(1, 0, 0, -1, 0, 413.89)" gradientUnits="userSpaceOnUse"><stop offset="0" stop-color="#ffb0b0"/><stop offset="0.98" stop-color="#ffc2a9"/></linearGradient><linearGradient id="linear-gradient-26" x1="430.03" y1="229.23" x2="430.03" y2="238.45" xlink:href="#linear-gradient-25"/><linearGradient id="linear-gradient-27" x1="390.6" y1="210.85" x2="407.75" y2="210.85" xlink:href="#linear-gradient-22"/><linearGradient id="linear-gradient-28" x1="366.76" y1="151.66" x2="366.76" y2="236.17" xlink:href="#linear-gradient-10"/><linearGradient id="linear-gradient-29" x1="180.66" y1="168.7" x2="321.97" y2="168.7" xlink:href="#linear-gradient-10"/><linearGradient id="linear-gradient-30" x1="305.28" y1="192.34" x2="332.28" y2="192.34" gradientTransform="matrix(1, 0, 0, -1, 0, 413.89)" gradientUnits="userSpaceOnUse"><stop offset="0" stop-color="#ccedff"/><stop offset="1" stop-color="#755cbb"/></linearGradient><linearGradient id="linear-gradient-31" x1="280.77" y1="144.92" x2="320.48" y2="144.92" xlink:href="#linear-gradient-30"/><linearGradient id="linear-gradient-32" x1="282.61" y1="127" x2="325.03" y2="127" xlink:href="#linear-gradient-30"/><linearGradient id="linear-gradient-33" x1="246.1" y1="171.44" x2="246.1" y2="219.05" xlink:href="#linear-gradient-30"/><linearGradient id="linear-gradient-34" x1="249.94" y1="167.45" x2="249.94" y2="203.53" xlink:href="#linear-gradient-30"/><linearGradient id="linear-gradient-35" x1="192.9" y1="213.55" x2="192.9" y2="240.83" xlink:href="#linear-gradient-30"/><linearGradient id="linear-gradient-36" x1="214.97" y1="237.56" x2="225.97" y2="237.56" xlink:href="#linear-gradient-30"/><linearGradient id="linear-gradient-37" x1="334.42" y1="171.42" x2="334.42" y2="221.96" xlink:href="#linear-gradient-10"/><linearGradient id="linear-gradient-38" x1="391.24" y1="182.28" x2="391.24" y2="208.7" xlink:href="#linear-gradient-10"/><linearGradient id="linear-gradient-39" x1="361.29" y1="183.47" x2="361.29" y2="203.66" xlink:href="#linear-gradient-10"/><linearGradient id="linear-gradient-40" x1="187.19" y1="211.81" x2="187.19" y2="219.31" xlink:href="#linear-gradient-30"/><linearGradient id="linear-gradient-41" x1="207.2" y1="188.93" x2="207.2" y2="229.93" xlink:href="#linear-gradient-10"/><linearGradient id="linear-gradient-42" x1="312.64" y1="217.8" x2="312.64" y2="248.63" xlink:href="#linear-gradient-30"/><linearGradient id="linear-gradient-43" x1="272.21" y1="221.96" x2="272.21" y2="264.52" xlink:href="#linear-gradient-30"/><linearGradient id="linear-gradient-44" x1="257.87" y1="214.18" x2="328.96" y2="214.18" gradientTransform="matrix(1, 0, 0, -1, 0, 413.89)" gradientUnits="userSpaceOnUse"><stop offset="0" stop-color="#8642a0"/><stop offset="1" stop-color="#6456c0"/></linearGradient><linearGradient id="linear-gradient-45" x1="263.97" y1="255.17" x2="310.26" y2="255.17" xlink:href="#linear-gradient-10"/><linearGradient id="linear-gradient-46" x1="382.92" y1="185.3" x2="382.92" y2="212.07" xlink:href="#linear-gradient-10"/><linearGradient id="linear-gradient-47" x1="345.11" y1="155.1" x2="345.11" y2="236.17" xlink:href="#linear-gradient-10"/><linearGradient id="linear-gradient-48" x1="257.93" y1="117.02" x2="257.93" y2="140.25" xlink:href="#linear-gradient-10"/><linearGradient id="linear-gradient-49" x1="303.07" y1="123.4" x2="303.07" y2="134.69" xlink:href="#linear-gradient-10"/><linearGradient id="linear-gradient-50" x1="302.57" y1="268.47" x2="302.57" y2="345.72" xlink:href="#linear-gradient-19"/><linearGradient id="linear-gradient-51" x1="273.8" y1="299.61" x2="273.8" y2="322.39" xlink:href="#linear-gradient-19"/><linearGradient id="linear-gradient-52" x1="313.3" y1="291.01" x2="314.25" y2="295.98" gradientTransform="matrix(1, 0, 0, -1, 0, 413.89)" gradientUnits="userSpaceOnUse"><stop offset="0" stop-color="#e1616a"/><stop offset="1" stop-color="#ff8883"/></linearGradient><linearGradient id="linear-gradient-53" x1="304.7" y1="294.82" x2="304.7" y2="344.55" xlink:href="#linear-gradient-20"/><linearGradient id="linear-gradient-54" x1="302.25" y1="315.19" x2="302.25" y2="325.04" gradientTransform="matrix(1, 0, 0, -1, 0, 413.89)" gradientUnits="userSpaceOnUse"><stop offset="0" stop-color="#cf6074"/><stop offset="1" stop-color="#f37270"/></linearGradient><linearGradient id="linear-gradient-55" x1="321.91" y1="312.06" x2="321.91" y2="320.63" gradientTransform="matrix(1, 0, 0, -1, 0, 413.89)" gradientUnits="userSpaceOnUse"><stop offset="0" stop-color="#cf6074"/><stop offset="1" stop-color="#ff817f"/></linearGradient><linearGradient id="linear-gradient-56" x1="322.74" y1="307.07" x2="322.74" y2="326.36" xlink:href="#linear-gradient-20"/><linearGradient id="linear-gradient-57" x1="303.59" y1="267.52" x2="303.59" y2="361.16" gradientTransform="matrix(1, 0, 0, -1, 0, 413.89)" gradientUnits="userSpaceOnUse"><stop offset="0" stop-color="#2e33a0"/><stop offset="1" stop-color="#0665a5"/></linearGradient><linearGradient id="linear-gradient-58" x1="328.19" y1="326.46" x2="328.19" y2="348.06" gradientTransform="matrix(1, 0, 0, -1, 0, 413.89)" gradientUnits="userSpaceOnUse"><stop offset="0" stop-color="#ffeadb"/><stop offset="0.99" stop-color="#8860c7"/></linearGradient><linearGradient id="linear-gradient-59" x1="298.76" y1="267.59" x2="298.76" y2="361.13" gradientTransform="matrix(1, 0, 0, -1, 0, 413.89)" gradientUnits="userSpaceOnUse"><stop offset="0" stop-color="#ccc2db"/><stop offset="0.99" stop-color="#8860c7"/></linearGradient><linearGradient id="linear-gradient-60" x1="305.04" y1="267.52" x2="305.04" y2="271.54" gradientTransform="matrix(1, 0, 0, -1, 0, 413.89)" gradientUnits="userSpaceOnUse"><stop offset="0" stop-color="#776d7e"/><stop offset="1" stop-color="#9d68c2"/></linearGradient><linearGradient id="linear-gradient-61" x1="316.84" y1="354.41" x2="316.84" y2="357.4" gradientTransform="matrix(1, 0, 0, -1, 0, 413.89)" gradientUnits="userSpaceOnUse"><stop offset="0" stop-color="#1f77d1"/><stop offset="1" stop-color="#0686c9"/></linearGradient><linearGradient id="linear-gradient-62" x1="297.81" y1="344.57" x2="297.81" y2="353.4" xlink:href="#linear-gradient-61"/><linearGradient id="linear-gradient-63" x1="329.83" y1="340.09" x2="329.83" y2="348.06" xlink:href="#linear-gradient-61"/><linearGradient id="linear-gradient-64" x1="277.1" y1="305.02" x2="266.9" y2="317.5" gradientTransform="matrix(1, 0, 0, -1, 0, 413.89)" gradientUnits="userSpaceOnUse"><stop offset="0" stop-color="#ffeadb"/><stop offset="0.99" stop-color="#b060f4"/></linearGradient><linearGradient id="linear-gradient-65" x1="278.16" y1="306.62" x2="273.14" y2="312.76" xlink:href="#linear-gradient-64"/><linearGradient id="linear-gradient-66" x1="297.21" y1="343.77" x2="314.48" y2="343.77" xlink:href="#linear-gradient-61"/><linearGradient id="linear-gradient-67" x1="321.57" y1="292.17" x2="326.8" y2="292.17" xlink:href="#linear-gradient-61"/><linearGradient id="linear-gradient-68" x1="315.1" y1="296.03" x2="320.75" y2="296.03" xlink:href="#linear-gradient-61"/><linearGradient id="linear-gradient-69" x1="356.77" y1="282.33" x2="533.82" y2="282.33" gradientTransform="matrix(1, 0, 0, -1, 0, 413.89)" gradientUnits="userSpaceOnUse"><stop offset="0" stop-color="#9d68c2"/><stop offset="1" stop-color="#aec2ff"/></linearGradient><linearGradient id="linear-gradient-70" x1="392.79" y1="215.46" x2="392.79" y2="268.86" gradientTransform="matrix(1, 0, 0, -1, -70.27, 378.32)" gradientUnits="userSpaceOnUse"><stop offset="0" stop-color="#ccedff"/><stop offset="1" stop-color="#9d68c2"/></linearGradient><linearGradient id="linear-gradient-71" x1="483.84" y1="241.5" x2="483.84" y2="265.02" xlink:href="#linear-gradient-70"/><linearGradient id="linear-gradient-72" x1="511.59" y1="241.5" x2="511.59" y2="265.02" xlink:href="#linear-gradient-70"/><linearGradient id="linear-gradient-73" x1="455.62" y1="241.5" x2="455.62" y2="265.02" xlink:href="#linear-gradient-70"/><linearGradient id="linear-gradient-74" x1="202.64" y1="299.29" x2="202.64" y2="323.92" gradientTransform="matrix(1, 0, 0, -1, -70.27, 378.32)" gradientUnits="userSpaceOnUse"><stop offset="0" stop-color="#d93de3"/><stop offset="1" stop-color="#ff6dba"/></linearGradient><linearGradient id="linear-gradient-75" x1="217.69" y1="299.29" x2="217.69" y2="323.92" gradientTransform="matrix(1, 0, 0, -1, -70.27, 378.32)" gradientUnits="userSpaceOnUse"><stop offset="0" stop-color="#a242ea"/><stop offset="1" stop-color="#fe117e"/></linearGradient><linearGradient id="linear-gradient-76" x1="198.37" y1="39.91" x2="211.68" y2="145.92" gradientTransform="matrix(1, 0, 0, -1, 0, 413.89)" gradientUnits="userSpaceOnUse"><stop offset="0" stop-color="#067eff"/><stop offset="1" stop-color="#3e37a0"/></linearGradient><linearGradient id="linear-gradient-77" x1="509.22" y1="301.97" x2="509.22" y2="310.91" gradientTransform="matrix(1, 0, 0, -1, 0, 413.89)" gradientUnits="userSpaceOnUse"><stop offset="0" stop-color="#459fff"/><stop offset="1" stop-color="#a96dff"/></linearGradient><linearGradient id="linear-gradient-78" x1="89.22" y1="197.24" x2="89.22" y2="208.36" xlink:href="#linear-gradient-77"/><linearGradient id="linear-gradient-79" x1="522.34" y1="301.97" x2="522.34" y2="310.91" gradientTransform="matrix(1, 0, 0, -1, -70.27, 378.32)" gradientUnits="userSpaceOnUse"><stop offset="0" stop-color="#b31a8f"/><stop offset="1" stop-color="#fe117e"/></linearGradient><linearGradient id="linear-gradient-80" x1="234.17" y1="272.55" x2="234.17" y2="278.87" xlink:href="#linear-gradient-79"/><linearGradient id="linear-gradient-81" x1="445.83" y1="133.12" x2="445.83" y2="139.44" gradientTransform="matrix(1, 0, 0, -1, -70.27, 378.32)" xlink:href="#linear-gradient-44"/><linearGradient id="linear-gradient-82" x1="117.31" y1="101.95" x2="117.31" y2="107.6" gradientTransform="matrix(1, 0, 0, -1, -70.27, 378.32)" xlink:href="#linear-gradient-44"/><linearGradient id="linear-gradient-83" x1="141.01" y1="132.51" x2="141.01" y2="179.13" gradientTransform="matrix(1, 0, 0, -1, 0, 413.89)" gradientUnits="userSpaceOnUse"><stop offset="0" stop-color="#d906e3"/><stop offset="1" stop-color="#ff6df9"/></linearGradient><linearGradient id="linear-gradient-84" x1="463.2" y1="66.46" x2="463.2" y2="124.83" xlink:href="#linear-gradient-83"/><linearGradient id="linear-gradient-85" x1="462.08" y1="148.74" x2="457.11" y2="191.43" gradientTransform="matrix(0.97, 0.26, 0.26, -0.97, -99.56, 339.85)" gradientUnits="userSpaceOnUse"><stop offset="0" stop-color="#1852a0"/><stop offset="1" stop-color="#067ed3"/></linearGradient><linearGradient id="linear-gradient-86" x1="457.21" y1="148.79" x2="457.21" y2="192.54" xlink:href="#linear-gradient-85"/><linearGradient id="linear-gradient-87" x1="438.05" y1="212.24" x2="434.83" y2="239.85" gradientTransform="matrix(0.94, 0.33, 0.52, -1.49, -145.04, 484.99)" gradientUnits="userSpaceOnUse"><stop offset="0" stop-color="#188dc1"/><stop offset="1" stop-color="#06bfe7"/></linearGradient><linearGradient id="linear-gradient-88" x1="417.32" y1="327.18" x2="428.65" y2="369.26" gradientTransform="matrix(1, 0, 0, -1, -70.27, 378.32)" xlink:href="#linear-gradient-87"/><linearGradient id="linear-gradient-89" x1="397.84" y1="332.03" x2="406.3" y2="363.42" gradientTransform="matrix(1, 0, 0, -1, -70.27, 378.32)" xlink:href="#linear-gradient-85"/><linearGradient id="linear-gradient-90" x1="120.96" y1="254.71" x2="128.69" y2="283.4" gradientTransform="translate(140.39 378.32) rotate(180)" xlink:href="#linear-gradient-87"/><linearGradient id="linear-gradient-91" x1="107.68" y1="258.02" x2="113.44" y2="279.42" gradientTransform="translate(140.39 378.32) rotate(180)" xlink:href="#linear-gradient-85"/></defs><title>vector</title><g id="illustration"><g class="cls-2"><path class="cls-3" d="M153.18,194.71q0-.37.36-.36l6.7.2a4.86,4.86,0,0,1,1.69.31,3,3,0,0,1,1.11.74,2.89,2.89,0,0,1,.59,1.14,4.87,4.87,0,0,1,.15,1.47l-.05,1.85a5.13,5.13,0,0,1-.24,1.46,2.94,2.94,0,0,1-.66,1.1,3.05,3.05,0,0,1-1.15.68,5.18,5.18,0,0,1-1.71.2l-3.61-.11-.75-2.12h-.09l-.07,2.09-2.53-.08Zm2.34,6.33,4.29.13a1.38,1.38,0,0,0,1-.29,1.62,1.62,0,0,0,.34-1.12l0-1.5a1.68,1.68,0,0,0-.27-1.15,1.51,1.51,0,0,0-1-.33l-4.1-.12a.17.17,0,0,0-.14,0,.24.24,0,0,0,0,.12Z" transform="translate(-70.27 -35.57)"/><path class="cls-3" d="M167.42,198.54h-.09l-.08,2.68a.16.16,0,0,0,.12.18h0l7.56.21-.07,2.32-9.93-.32a.33.33,0,0,1-.35-.31v-.07l.25-8.21a.33.33,0,0,1,.3-.36h.07l9.61.3c.24,0,.36.13.35.38l-.07,2.32-2.37.8h-.1v-1.2c0-.09,0-.13-.12-.13l-5.07-.16a.17.17,0,0,0-.14,0,.24.24,0,0,0,0,.12v1.12l4.17.12v1.82l-3.5-.1Z" transform="translate(-70.27 -35.57)"/><path class="cls-3" d="M184.18,198.38h-.1v-1c0-.1,0-.15-.14-.15l-4.72-.14a.43.43,0,0,0-.36.1.51.51,0,0,0-.11.31v.22a.45.45,0,0,0,.07.34.66.66,0,0,0,.33.12l5.53.94a3.8,3.8,0,0,1,.89.26,1.77,1.77,0,0,1,.59.42,1.38,1.38,0,0,1,.31.63,3.25,3.25,0,0,1,.08.88V202a3.08,3.08,0,0,1-.16,1,1.75,1.75,0,0,1-.46.7,2,2,0,0,1-.83.41,4.7,4.7,0,0,1-1.24.11l-8-.24.07-2.32,7.13.21c.22,0,.36,0,.43-.1a.66.66,0,0,0,.12-.41v-.24a.44.44,0,0,0-.07-.33.48.48,0,0,0-.3-.13l-5.34-.84a4.18,4.18,0,0,1-.92-.25,1.64,1.64,0,0,1-.62-.41,1.42,1.42,0,0,1-.34-.61,2.7,2.7,0,0,1-.08-.85v-.63a2.07,2.07,0,0,1,.57-1.49,2.34,2.34,0,0,1,1.73-.48l8,.24a.35.35,0,0,1,.37.32.14.14,0,0,1,0,.09l-.06,1.84Z" transform="translate(-70.27 -35.57)"/><path class="cls-3" d="M187.54,204.33l.27-8.94,2.53.08-.27,8.94Z" transform="translate(-70.27 -35.57)"/><path class="cls-3" d="M199.46,200.86a2.94,2.94,0,0,0,0-.42V200l2.5.07-.13,4.39c0,.23-.11.34-.32.34l-6.73-.21a5.1,5.1,0,0,1-1.69-.3,2.71,2.71,0,0,1-1.7-1.89,5.21,5.21,0,0,1-.15-1.47l.06-1.84a4.57,4.57,0,0,1,.24-1.47,2.61,2.61,0,0,1,.66-1.09,2.75,2.75,0,0,1,1.15-.68,4.9,4.9,0,0,1,1.7-.2l6.7.2c.24,0,.35.13.34.38l-.05,1.93-2.38.79h-.1v-.86c0-.08,0-.12-.11-.12l-4.27-.13a2.15,2.15,0,0,0-.62,0,.85.85,0,0,0-.42.22,1,1,0,0,0-.25.43,2.59,2.59,0,0,0-.09.68l-.05,1.58a1.59,1.59,0,0,0,.27,1.14,1.41,1.41,0,0,0,1,.35l4.24.12c.09,0,.14,0,.14-.14Z" transform="translate(-70.27 -35.57)"/><path class="cls-3" d="M207.28,196a.58.58,0,0,1,.61.37l3.19,6.53a.28.28,0,0,0,.23.16h.14a.17.17,0,0,0,.2-.14v-.05l.2-6.73,2.3.07-.26,8.59a.3.3,0,0,1-.35.34L209.9,205a.73.73,0,0,1-.38-.08.68.68,0,0,1-.24-.29L206,198.12a.26.26,0,0,0-.23-.16h-.13a.18.18,0,0,0-.2.19l-.2,6.72-2.3-.07.26-8.58a.31.31,0,0,1,.35-.35Z" transform="translate(-70.27 -35.57)"/><circle class="cls-4" cx="274.02" cy="194.14" r="155.02" transform="translate(-127.29 215.05) rotate(-45)"/><path class="cls-5" d="M160.07,184.22A23.84,23.84,0,0,0,149.51,175l-2.35,1.09,5.3,9.61a10.35,10.35,0,0,1-3.24,5.72h0a10.32,10.32,0,0,1-6.47-1.18l-4-10.23-2.36,1.1a23.86,23.86,0,0,0,.34,14s1,2.31,1.17,2.52c.94,1.08,3.36,2.34,8.06,2l16.23,31a8.49,8.49,0,1,0,8.76-4.09l-13.3-32.25c3.16-3.34,3.83-6,3.59-7.49C160.89,185.91,160.5,185.05,160.07,184.22Zm13.32,53.31-4.29,2-3.88-2.71.41-4.72,4.29-2,3.88,2.71Z" transform="translate(-70.27 -35.57)"/><path class="cls-6" d="M161.24,186.74a23.79,23.79,0,0,0-10.55-9.27l-2.35,1.1,5.29,9.6a10.23,10.23,0,0,1-3.24,5.72h0a10.33,10.33,0,0,1-6.47-1.19l-4-10.22-2.35,1.1a23.87,23.87,0,0,0,.33,14s3.67,4.91,9.23,4.56l16.21,30.92A8.47,8.47,0,1,0,174.92,230a8.6,8.6,0,0,0-2.82-1l-13.31-32.24C162.66,192.7,161.24,186.74,161.24,186.74Zm13.33,53.31-4.29,2-3.88-2.71.41-4.72,4.29-2,3.88,2.72Z" transform="translate(-70.27 -35.57)"/><rect class="cls-7" x="136.89" y="180.38" width="2.59" height="2.78" transform="translate(-134.22 40) rotate(-25.04)"/><rect class="cls-7" x="147.62" y="175.39" width="2.59" height="2.78" transform="translate(-131.09 44.07) rotate(-25.04)"/><rect class="cls-7" x="169.47" y="238.41" width="4.74" height="2.78" transform="translate(-155.62 59.7) rotate(-25.04)"/><path class="cls-8" d="M150.63,204.47l13.09,25.14a6.35,6.35,0,0,0,5.28-2.47l-10.65-26.29A10.09,10.09,0,0,0,150.63,204.47ZM168,227.36a7.59,7.59,0,0,1-1.69,1.11,6.31,6.31,0,0,1-1.81.54l-13.1-24.64a13.72,13.72,0,0,1,3.15-2.07,11.09,11.09,0,0,1,3.24-1Z" transform="translate(-70.27 -35.57)"/><path class="cls-7" d="M168,227.36l1-.21a5.64,5.64,0,0,1-5.28,2.47l.77-.61A7.18,7.18,0,0,0,168,227.36Z" transform="translate(-70.27 -35.57)"/><path class="cls-9" d="M150.63,204.47l.76-.1a12.2,12.2,0,0,1,6.39-3l.57-.49a9.86,9.86,0,0,0-7.72,3.61Z" transform="translate(-70.27 -35.57)"/><path class="cls-10" d="M147.16,202.17a28.94,28.94,0,0,0,11.66-5.42l1.7,4.12s-1.93-1.91-6.16-.18c-5,2-4.68,6-4.68,6Z" transform="translate(-70.27 -35.57)"/><path class="cls-11" d="M160.52,200.87a5,5,0,0,0-2.58-.89l12.66,30.63,1.53-1.58Z" transform="translate(-70.27 -35.57)"/><path class="cls-12" d="M160.52,200.87s-1.32,4.09,2.49,6Z" transform="translate(-70.27 -35.57)"/><path class="cls-13" d="M351.2,398.61h-47c-4.92-27.32-16.36-62.87-16.36-62.87-2.78-1.65-8.21.38-8.21.38l-17.18,62.49H219.51c-2.28-38.56,18.82-82.33,18.82-82.33h0a4.73,4.73,0,0,1-.56-2.39,5.72,5.72,0,0,1,1.6-1.86c1.16-1.06,2.54-2.12,2.54-2.12l80.11-.5s.81.41,1.84,1h0c1.75,1.06,4.12,2.7,4.12,3.9a5.46,5.46,0,0,1-.81,3v.05C344.31,349.76,351.2,398.61,351.2,398.61Z" transform="translate(-70.27 -35.57)"/><ellipse class="cls-14" cx="246.65" cy="353.3" rx="46.31" ry="17.92" transform="translate(-223.33 478.65) rotate(-77.01)"/><ellipse class="cls-15" cx="319.77" cy="353" rx="17.92" ry="46.31" transform="translate(-153.64 63.78) rotate(-15.65)"/><path class="cls-16" d="M256.89,398.61l-.49-.08c5.46-32.2,19.34-59.21,19.47-59.48l.06-.07,3.54-3.09.32.38-3.49,3.06C275.67,340.61,262.24,367.12,256.89,398.61Z" transform="translate(-70.27 -35.57)"/><path class="cls-17" d="M310.58,398.61c-5.36-31.55-19.16-58.34-19.78-59.54l-3.13-2.8.34-.38,3.21,2.91c.15.27,14.39,27.53,19.85,59.73Z" transform="translate(-70.27 -35.57)"/><path class="cls-18" d="M328,314.33a5.46,5.46,0,0,1-.81,3v.05c-16.68,3.77-29.37,19.34-29.37,19.34,9.06,17.4,24.18,61.89,24.18,61.89H304.2c-4.92-27.32-16.36-62.87-16.36-62.87-2.78-1.65-8.21.38-8.21.38l-17.18,62.49H251.33c4-26.18,15.73-58.14,15.73-58.14-11.55-13.45-28.73-24.19-28.73-24.19h0l-2-1.28,1.48-1.11c7.43,7.13,31.39,16.44,32.13,16.73L239.41,312c1.16-1.06,2.54-2.12,2.54-2.12l80.11-.5s.81.41,1.84,1l-21.88,12Z" transform="translate(-70.27 -35.57)"/><polygon class="cls-19" points="217.57 300.17 226.92 294.1 224.7 300.17 223.07 318.43 217.57 300.17"/><polygon class="cls-20" points="209.36 300.55 199.62 295.04 178.77 285.65 205.32 303.2 206.9 309.49 209.36 300.55"/><path class="cls-21" d="M306.43,148.26c.06.43.11.66.11.66q-.69,2.87-1.66,5.66a45.78,45.78,0,0,1-6.23,12.12,23.55,23.55,0,0,1-2.72,3.18c-14.59-4.58-21.78-18.85-24.54-26a.21.21,0,0,1,0-.11c-.53-1.34-.88-2.42-1.1-3.12h0c-.17-.56-.25-.87-.25-.87l.18-.37v0c.24-.5.48-1,.7-1.5a71.45,71.45,0,0,0,4-11.17c.71-2.62,1.09-4.64,1.27-5.71.09-.55.13-.85.13-.85l6.8,3.59,23.43,12.4a38.09,38.09,0,0,0-.5,5.94c0,1.25,0,2.37.09,3.32.07,1.16.19,2.08.28,2.68h0A.67.67,0,0,0,306.43,148.26Z" transform="translate(-70.27 -35.57)"/><path class="cls-22" d="M300,171.45a20,20,0,0,1-4.84,3.54l-.12.07-.14-.08h0c-.51-.31-2.25-1.38-4.59-3.14-6.12-4.61-16.34-13.93-19.26-26.49h0a30.83,30.83,0,0,1-.7-4.59h0c0-.41-.06-.82-.07-1.24a64.3,64.3,0,0,0,5.55,9.92c4.14,6.06,10.35,12.67,17.77,12.71,6.42,0,9.71-4.35,11.38-8.4a22.92,22.92,0,0,0,1.35-4.6h0c.07-.36.12-.68.17-1h0a.88.88,0,0,1,0-.37c.06-.45.08-.71.08-.71S309,162.38,300,171.45Z" transform="translate(-70.27 -35.57)"/><path class="cls-23" d="M300,171.45a20,20,0,0,1-4.84,3.54h-.27c-.51-.31-2.25-1.38-4.59-3.14-6.12-4.61-16.34-13.93-19.26-26.49h0a30.83,30.83,0,0,1-.7-4.59h0c0-.41-.06-.82-.07-1.24a64.3,64.3,0,0,0,5.55,9.92s4,11.1,12.78,16.6c4.38,2.75,7.7,2.35,10.14.73a15,15,0,0,0,5-6.54,15.35,15.35,0,0,0,1.28-5.58v-.9a22.92,22.92,0,0,0,1.35-4.6h0c.07-.36.12-.68.17-.95h0a.88.88,0,0,1,.05-.37c.06-.45.08-.71.08-.71S309,162.38,300,171.45Z" transform="translate(-70.27 -35.57)"/><path class="cls-24" d="M356.09,262.14l-.16.08c-.82.1-3.37-.46-6.71-3.35h0c-2.8-2.45-6.16-6.54-9.51-13.24-6.7-13.39-8.62-22.33-8.93-23.89v-.24l-3.91,6.2c-2.65,8-7.67,40.95-7.58,42.37s4.45,8.34,4.36,9.19h0c-.12.86-2.08,2.75-2.64,4.81-.38,1.37,2.28,5.69,4.15,8.92h0a13.28,13.28,0,0,1,1.72,3.58c0,1.51-4.74,8.9-4.74,8.9v4l-.07.07-.22.2-.18.15c-1.8,1.42-9.43,6.07-33.27,7.35-28.25,1.51-47.07-7.58-47.07-7.58l1.42-3.89s-1.32-1.13-1.42-1.7,1-1.9,1-1.9-2.84-1.51-2.84-3.41S245.18,291,245,286s-4.55-9.47-5.12-12.31,7.39-9.85,7.39-9.85c-6.82-21.6-8.15-50.59-8.15-50.59l-1.41-1.61s-8.15,18.57-15.54,27.66c-.88,1.08-1.81,2.15-2.77,3.18A82,82,0,0,1,213,248.6c-5.12,4.46-9.77,7.39-10.95,7.16-1.9-.38-9.48-15.35-9.13-30.7.16-7.3,4.56-15.47,9.13-22,.49-.7,1-1.39,1.48-2.06a104.21,104.21,0,0,1,7.84-9.45c.58-.62.91-1,.91-1s-1-3.35-1.75-6.26a1.6,1.6,0,0,0-.05-.21V184c-.42-1.79-.68-3.34-.44-3.72.63-1,4.3-2.15,4.93-2.9s3.28-13.52,5.3-14.91,5.35-2.3,16.72-6.77l1.73-.68c12.75-5,25.26-11.18,25.26-11.18l4.8-5.9H271l-.7,1.5v0c.34,1.52.73,3,1.17,4.37a.21.21,0,0,0,0,.11C278,164.75,295,171.46,295,171.46c11.8-8.71,11.57-22.54,11.57-22.54V147l2.21.66,1.51,3.6s2.56,4,12.7,8.44a58.4,58.4,0,0,1,5.57,2.85c9.28,5.27,19.6,13.42,20.39,15.15a6.59,6.59,0,0,1,.27.86h0c1.09,4.28,3.33,20.31,5.41,26a13.07,13.07,0,0,0,4.86,6.56h0a7.93,7.93,0,0,0,1.94,1q.24,1.32.45,2.61C366.22,242.23,358,260.84,356.09,262.14Z" transform="translate(-70.27 -35.57)"/><path class="cls-25" d="M247.26,210.38,239,213.15l-1.32-1.54s-8.15,18.57-15.54,27.66c-.88,1.08-1.81,2.15-2.77,3.18A82,82,0,0,1,213,248.6l-6.28-27.07L203.56,201a104.21,104.21,0,0,1,7.84-9.45c.58-.62.91-.95.91-.95s-1-3.35-1.75-6.26a1.6,1.6,0,0,0-.05-.21v-.17c-.42-1.79-.68-3.34-.44-3.72.63-1,4.3-2.15,4.93-2.9s3.28-13.52,5.3-14.91c0,0-1.32,12.25,5.69,27.79l3.41,4.8,10,8S243.13,208.07,247.26,210.38Z" transform="translate(-70.27 -35.57)"/><path class="cls-26" d="M223.42,232.54c-1.77,13.13-21.34,23.24-21.34,23.24-4.36,0-9.23-7.58-13.65-16.93s-4.69-36.21-4.92-37.87-2.7-5-2.85-6.4,4-4.36,4-4.36v-.14c-.43-.92-2.85-6.11-2.68-7.06s4.82-3.31,4.82-3.31l.29,5.11s10.78-2,14.43-10.39l.64-2.56,1.8,1.2v11s.37,1.71.94,1.71,4.77-2.1,5.65-1.81,1.76,6.17,2.94,6.92,4.3,2.94,4.77,4a18.61,18.61,0,0,1,.25,4.15,42.41,42.41,0,0,0,.41,6.94C219.51,208.88,225.19,219.4,223.42,232.54Z" transform="translate(-70.27 -35.57)"/><path class="cls-27" d="M402.41,221.29c-.88,1.39-5.3,4.3-6.44,5.44s0,4.87,0,4.87a153.39,153.39,0,0,1-39.88,30.54l-.16.08c-11.66-7.84-10.66-20.75-6.79-31.63a82.38,82.38,0,0,1,10.32-19.38h0a24.91,24.91,0,0,1,5.92-1.64,3.6,3.6,0,0,1,2.19.68c1.42.88,2.62,2.27,3.78,1.69,1.71-.86,5.53-9.89,8.12-10.14,1.81-.17,4.32,1.67,6,2.72.73.46,1.3.77,1.58.69,1-.25,4.17-4.11,4.43-4.21s1.72,1,1.72,1l-1,1.28A35,35,0,0,0,399,218.45l3.47-5.08S403.3,219.9,402.41,221.29Z" transform="translate(-70.27 -35.57)"/><path class="cls-28" d="M306.48,147.87a1,1,0,0,1-.05.39,7.16,7.16,0,0,1-.19.8h0c-1.19,4.41-6,8.92-12.07,6.75-6.63-2.37-19.25-29.1-19.25-29.1l1.27-5.71,30,24.4.33,2.31Z" transform="translate(-70.27 -35.57)"/><path class="cls-29" d="M206.75,143s-1.83-10.11-1-17.56a81.44,81.44,0,0,0-.21-15.92,4.07,4.07,0,0,0-3.14,0c-1.33.76-4.42,8.47-3,14.66s.32,21,.32,21h-2.09l-4.55-6.25-2.21-.64s-12.72,12-12.53,19.14l1.66,6.35,15.67-.54,10.19-11.61Z" transform="translate(-70.27 -35.57)"/><path class="cls-30" d="M190.83,138.3A81,81,0,0,0,193,153.08a3.54,3.54,0,0,1-3.57,3l-.8-.9s-.57,3.17-3.46,3.41l-2.75-2.75.71,2.27a3.89,3.89,0,0,1-3.6,2.33s-4.36-3.41-4.64-7.87l4.31-3.64v-2.8l5.11-3.6.1-2A12.08,12.08,0,0,1,190.83,138.3Z" transform="translate(-70.27 -35.57)"/><path class="cls-31" d="M206,123.28a7.15,7.15,0,0,1-1.86,2.71,16.11,16.11,0,0,1-4.24,1.34l-.14,17.86h-2.09l-4.55-6.25s2.31,3.56,2.45,6.25l-1.8.88-1.56-5.35-.74,3.85.73,4.8a12.66,12.66,0,0,1,7.58-2.42l.73,1.33s-8.82,7.31-10.86,11.62c0,0,4.36-5.54,14.31-11.65l.94-2.93,1.26-7S204.89,128.2,206,123.28Z" transform="translate(-70.27 -35.57)"/><path class="cls-32" d="M213.32,154.41c-.82,2.46-9.41,12.69-10.36,14.91a29.15,29.15,0,0,0-1.52,5.11c-4.22,9.18-14.47,10.39-14.47,10.39l-.47-8.24s-5.49-3.16-6.42-4.89h0l-.11-.29a68.45,68.45,0,0,1,0-7.58l9.61-3.89c4.17-5.4,14.31-11.65,14.31-11.65l.47-2.83c-7.28-3.58-6.06-14.41-4.83-15.74a5.41,5.41,0,0,1,3.5-1.32s2.66,8.71,4.36,12.79S214.14,152,213.32,154.41Z" transform="translate(-70.27 -35.57)"/><path class="cls-33" d="M184.36,140.48s1.07,10,4.22,14.69a23.21,23.21,0,0,1-4.32-12.65Z" transform="translate(-70.27 -35.57)"/><path class="cls-33" d="M179.15,146.12s1,8,6,12.46c0,0-4.37-2.18-6-9.66Z" transform="translate(-70.27 -35.57)"/><path class="cls-34" d="M204.29,167.2s-10.83,10.52-17.75,9.38l.47,8.24a18.28,18.28,0,0,0,15.07-13A31.58,31.58,0,0,1,204.29,167.2Z" transform="translate(-70.27 -35.57)"/><path class="cls-35" d="M433.33,181.5s-9.95,18.19-21.6,23.78h-4l-9.19,13.93s-5.94-3.73-6.38-16a11.12,11.12,0,0,0,2.61-4.6s-3.28-2.58-4.17-4.47-1.2-7.58-1.83-9.92-6-7.2-7.2-7.83-6.63-.95-6.63-.95-.76-2,0-2.9,9.22-4.24,13.83-1.08a20.94,20.94,0,0,0,.82,3.67c.51,1.26,4.55,5.74,5.18,5.74s3.35-2.27,4.55-4a179.29,179.29,0,0,0,8.74-19.32.29.29,0,0,1,0-.13,1.17,1.17,0,0,1,.06-.2V157c1.14-3.85,7.77-11.24,11.31-13.26a2.09,2.09,0,0,1,2.33,1.51s-2.84,8.09-5.81,12.89c-.5.81-1,1.76-1.6,2.78h0c-2.53,4.65-5.38,10.74-5.79,11.63l-.05.11,1.58.81,4.27-4,4.38-4.15,10.05,10.61-1,1.26-3.14,4,1.59.29,3.7-4.09Z" transform="translate(-70.27 -35.57)"/><path class="cls-36" d="M431,185.37,427.79,190s-17.42-13.43-21.21-14.6-5.18-.38-5.18-.38l-3.91,5s7.2,6.38,7.83,15c0,0-2.4-10.86-10.55-14.15.63,0,3.35-2.27,4.55-4a179.29,179.29,0,0,0,8.74-19.32,5,5,0,0,0,.16,3.41c.86,1.59,5.92.09,6.22,0h0l-5.8,11.63-.05.11,1.58.81,4.27-4.05-2.14,5,15.58,2.75-3.14,4,1.59.29Z" transform="translate(-70.27 -35.57)"/><path class="cls-37" d="M418.83,165.27s3-.44,5,3.48l-.44,1.26s3,.58,5.81,5.37a16.17,16.17,0,0,1-8.78,6.69s-2.9-.82-3.41-3.28l.57-1.58-2.27,1.71s-2.72.82-3.92-3.23Z" transform="translate(-70.27 -35.57)"/><path class="cls-38" d="M434.24,180.24a4.68,4.68,0,0,0-2.46-4.8l-6,6.63a3.08,3.08,0,0,0,2.78,2.59S432.66,183.27,434.24,180.24Z" transform="translate(-70.27 -35.57)"/><path class="cls-39" d="M390.6,194.14a44.41,44.41,0,0,0,17.15,11.14l-4.4,6.66-9.17-11.65.59-1.68S391.1,195.85,390.6,194.14Z" transform="translate(-70.27 -35.57)"/><path class="cls-33" d="M423.38,170s-2.9,4.8-5.81,7.2l-.57,1.58s5.64-3.81,7.72-8.2A3.64,3.64,0,0,0,423.38,170Z" transform="translate(-70.27 -35.57)"/><path class="cls-40" d="M402.41,221.29c-.88,1.39-5.3,4.3-6.44,5.44s0,4.87,0,4.87a153.39,153.39,0,0,1-39.88,30.54l-.16.08c-1.52.19-8.91-1.89-16.3-16.67-6.7-13.39-8.62-22.33-8.93-23.89v-.24l1.63-2.21,2.42-27.28,1.7,5.49c6.44-7.77,12.51-19.7,12.51-19.7l.27.86h0c1.09,4.28,3.33,20.31,5.41,26a13.07,13.07,0,0,0,4.86,6.56h0c-5.93,5.41-8.87,13.19-10.32,19.38a53.55,53.55,0,0,0-1.42,10,67.31,67.31,0,0,1,6.82-17,36.27,36.27,0,0,1,7.33-8.85,60.06,60.06,0,0,1,5.72-4.58c1.42.88,2.62,2.27,3.78,1.69-7.8,11.71-7.61,34.89-.28,30.47s9-13.8,9-13.8c-1.73-11.43-1.22-24.32.17-26.77,1.69,0,6.52,3.45,6.8,3.37A39.57,39.57,0,0,0,393,227.61l4.17-6.45A40.08,40.08,0,0,1,391.52,201c.25-.11,1.72,1,1.72,1l-1,1.28a35,35,0,0,0,6.73,15.2l3.47-5.08S403.3,219.9,402.41,221.29Z" transform="translate(-70.27 -35.57)"/><path class="cls-41" d="M322,305.42v4l-.07.07-.22.2-.18.15c-1.8,1.42-9.43,6.07-33.27,7.35-28.25,1.51-47.07-7.58-47.07-7.58l1.42-3.89s-1.32-1.13-1.42-1.7,1-1.9,1-1.9-2.84-1.51-2.84-3.41c0-1.71,4.64-6.66,5.39-11.31a6.67,6.67,0,0,0,.11-1.48c-.19-5-4.51-9.43-5.11-12.27h0c-.57-2.84,7.39-9.85,7.39-9.85-6.82-21.6-8.15-50.59-8.15-50.59l-1.25-1.6s-8.15,18.57-15.54,27.66S204,256.16,202.08,255.78c-4.36,0-9.23-7.58-13.65-16.93s-4.69-36.21-4.92-37.87-2.7-5-2.85-6.4c4.74,8.15,12.29,5.75,12.29,5.75-5.47.12-8.31-10.11-8.31-10.11v-.14L182,183c.3.34,6.55,7.33,12.59,3,6.19-4.42,9.38-13,9.38-13v11s.37,1.71.94,1.71A134.63,134.63,0,0,1,202.14,203c-2.81,13.13-6.66,25.81-6.66,25.81s10.44-5.68,14.11-20.08a61.07,61.07,0,0,0,1.87-17.24,43.77,43.77,0,0,0-.84-7.21,1.6,1.6,0,0,0-.05-.21V184h0l1,2.14,1.92,4.76c2.23,18.48-2.37,46.33-2.37,46.33,6.7-8.34,8.09-26.78,7.8-31.26-.13-2.14-.3-4.78-.41-6.94-.15-2.36-.25-4.15-.25-4.15L232,203.06l-2.53-8,10,8s9,10.8,18.19,12.06,43.07.51,43.07.51-29.43,1.89-38,4.42-10.23,5.43-10.23,5.43c6.21,31.59,40.58,42.24,41.65,42.56-31.18-4.68-45.69-31.19-45.69-31.19s-.51,14.91,1.89,20.59,16.55,19.58,34.74,22.48a40.41,40.41,0,0,0,4.53.46c15.34.72,28-7.12,29.34-8l.11-.07h0c-.49.75-6.78,9.59-32.18,10.56-1.54.06-3,.05-4.5,0h0c-23.54-1-35.53-16.67-35.53-16.67s-8.71,4.68-3.15,11.62l.18.22c1.64,1.89,5.25,4.2,9.52,6.58l.35.2c5.16,2.85,11.21,5.79,15.89,8.22h.07a58.38,58.38,0,0,1,6.52,3.73h0c1.32,1,1.59,1.58.3,1.73-6.57.76-31.45-4.67-32.46-3.16s1.23,5.43,1.23,5.43c22.84,11.32,71.71,5.74,73.25,5.57-41.06,10.57-74.56-2.73-74.56-2.73l1.11,3.92a146.26,146.26,0,0,0,39.69,6.82c21.48.5,34.87-5,34.87-5Z" transform="translate(-70.27 -35.57)"/><path class="cls-42" d="M305.28,215.48s16.26.89,27,3.73l-5.53,8.4A73.77,73.77,0,0,0,305.28,215.48Z" transform="translate(-70.27 -35.57)"/><path class="cls-43" d="M320.48,260.32s-10.15,8.47-20.13,12.38a67.53,67.53,0,0,1-19.58,4.3s5.74,1.7,19.85-.57,19-9.92,19-9.92Z" transform="translate(-70.27 -35.57)"/><path class="cls-44" d="M325,292.93h0c-18.78,4.85-42.62-2.11-42.42-3s6.53.38,21.21-2.56c14.23-2.85,19.39-7.91,19.7-8.22-.12.86-2.08,2.75-2.64,4.81C320.5,285.38,323.16,289.7,325,292.93Z" transform="translate(-70.27 -35.57)"/><path class="cls-45" d="M274,218c-16,1.63-20.36,6.1-20.36,6.1-4.51.57-14.64-11-14.64-11l-1.32-1.52s-8.15,18.57-15.54,27.66c-.88,1.08-1.81,2.15-2.77,3.18l1.05-2.36s1.72-.82,2.22-9.85-3.79-22.48-3.82-24.31-.66-11.09-.66-11.09L231.89,203l-2.53-8,10,8s3.91,5.88,13.78,10.78C262.43,218.45,272.87,218.08,274,218Z" transform="translate(-70.27 -35.57)"/><path class="cls-46" d="M237.7,211.61l9.56-1.25A71.92,71.92,0,0,0,258.74,216l-6.39,9.43s2.54,13.44,9.82,21c0,0-19.32-10.73-22-19.75Z" transform="translate(-70.27 -35.57)"/><path class="cls-47" d="M181.91,183l2.73,7.19s2.78,9.7,8.31,10.11,10.93-16.27,10.93-16.27v-11s-5.88,12.6-12.23,14S181.91,183,181.91,183Z" transform="translate(-70.27 -35.57)"/><path class="cls-48" d="M215,177.34s4.93,9.85,11,12.88c0,0-7.21-17.5-5.69-27.79C220.26,162.43,217.61,164.08,215,177.34Z" transform="translate(-70.27 -35.57)"/><path class="cls-49" d="M334.71,191.93l1.7,5.49,1.72,45.05a109.76,109.76,0,0,1-7.43-20.81l1.59-2.45S335,202.23,334.71,191.93Z" transform="translate(-70.27 -35.57)"/><path class="cls-50" d="M387.06,205.19s-1,22.13,8.44,24l.47,2.42S383.8,231.15,387.06,205.19Z" transform="translate(-70.27 -35.57)"/><path class="cls-51" d="M371.37,211.92s-.36.79-3.78-1.69c0,0-11.83,8.38-16.39,20.19,0,0,7.29-10.85,11.17-12s4.82,3.16,4.82,3.16S368.73,215.45,371.37,211.92Z" transform="translate(-70.27 -35.57)"/><path class="cls-52" d="M180.66,194.61s4.55,8.39,13.08,5.76c0,0-5.11,3.44-10.23.64C183.51,201,180.33,195.53,180.66,194.61Z" transform="translate(-70.27 -35.57)"/><path class="cls-53" d="M210.47,184s6.26,23.4-10.07,41a27.15,27.15,0,0,0,13-18.05A38.78,38.78,0,0,0,210.47,184Z" transform="translate(-70.27 -35.57)"/><path class="cls-54" d="M322.61,165.26s-.7,10.56-5.77,18.14-15.1,12.69-15.1,12.69,12.6-4.64,18.38-11.17S322.61,165.26,322.61,165.26Z" transform="translate(-70.27 -35.57)"/><path class="cls-55" d="M258.16,149.37A67,67,0,0,0,261,167.2c2.84,9,27.51,24.73,27.51,24.73s-25.42-10.57-30.35-20.06S258.16,149.37,258.16,149.37Z" transform="translate(-70.27 -35.57)"/><path class="cls-56" d="M257.87,191.43v14.38s33.11-.27,70.24,2.19l.85-12.94A646.69,646.69,0,0,0,257.87,191.43Z" transform="translate(-70.27 -35.57)"/><path class="cls-57" d="M310.26,151.28c-.78,9.3-3.61,15.78-6.63,20.15-4.16,6-8.66,8-8.66,8a51.92,51.92,0,0,1-11.76-7.09A60,60,0,0,1,264,143.89a66.08,66.08,0,0,0,21.56,28.31,43.33,43.33,0,0,0,9.41,5.52v-4.65a31.64,31.64,0,0,1-3.1-1.36c-11.8-6-18-18.35-20.9-26.37h0a57.45,57.45,0,0,1-2.18-7.39h2.14l-.7,1.5v.05c.34,1.52.73,3,1.17,4.37a.21.21,0,0,0,0,.11c6.6,20.77,23.6,27.48,23.6,27.48,11.8-8.71,11.57-22.54,11.57-22.54V147l2.21.66Z" transform="translate(-70.27 -35.57)"/><path class="cls-58" d="M380.26,201.82s-3.21,10.47-.17,26.77c0,0,1.51-20.65,2.65-22.45s4.32-.95,4.32-.95A72.8,72.8,0,0,0,380.26,201.82Z" transform="translate(-70.27 -35.57)"/><path class="cls-59" d="M349.14,258.79c-2.8-2.45-6.16-6.54-9.51-13.24-6.7-13.39-8.62-22.33-8.93-23.89l1.59-2.45,2.13-20.6,2-1.19A84.14,84.14,0,0,0,349,177.72a6.59,6.59,0,0,1,.27.86h0c1.09,4.28,3.33,20.31,5.41,26a13.07,13.07,0,0,0,4.86,6.56S347.2,229.4,346.6,242.43C346,254.33,348.66,258.19,349.14,258.79Z" transform="translate(-70.27 -35.57)"/><path class="cls-60" d="M276.05,296.87s-22.19-3.64-31.25-9.48h0a6.67,6.67,0,0,0,.11-1.48c-.19-5-4.51-9.43-5.11-12.27.1.27.75,1.77,3.9,4.47a66.9,66.9,0,0,0,9.52,6.58l.35.2c6.4,3.78,11.91,6.34,15.89,8.22h.07c3.58,1.68,5.9,2.79,6.52,3.73Z" transform="translate(-70.27 -35.57)"/><path class="cls-61" d="M323.52,279.2c-.12.86-2.08,2.75-2.64,4.81,0,0-8.14,8.62-38.27,6,.2-.85,6.53.38,21.21-2.56C318.05,284.61,323.21,279.51,323.52,279.2Z" transform="translate(-70.27 -35.57)"/><path class="cls-62" d="M328.53,162.61l-19.26,6.2-5.64,2.62H295l-3.1.25-1.64.12-4.67.37-2.35.19L260.11,164,256,162.54l-19-6.88,1.73-.68c12.75-5,25.26-11.18,25.26-11.18l4.8-5.9h2.14a71.45,71.45,0,0,0,4-11.17l1.27-5.71c.09-.55.13-.85.13-.85l6.8,3.59L306,142.1c0,1.25,0,2.37.09,3.32l.33,2.31c.06-.45.08-.71.08-.71l2.21.66,1.51,3.6s2.56,4,12.7,8.44A61.35,61.35,0,0,1,328.53,162.61Z" transform="translate(-70.27 -35.57)"/><path class="cls-63" d="M313.86,145A31.35,31.35,0,0,1,295,142.22c-9.91-4.8-18.24-19-18.75-22.48S280,107,280,99.74s-3.53-19.58,2.4-26.28,33.22-7.7,42.07.89c0,0,2.74,6.88,2.74,10.77A28.5,28.5,0,0,1,326.8,89c-.08.59-.19,1.22-.29,1.87-.79,4.71-1.88,10.46-1.37,13a12.59,12.59,0,0,0,.79,2.46h0c1.09,2.52,2.71,4.53,3,6.71C329.31,116,325.49,136.16,313.86,145Z" transform="translate(-70.27 -35.57)"/><path class="cls-64" d="M280,97.75s-2.45-6.15-8.61-6.25c0,0-3.6,1.43-4.17,4.17,0,0,1.33,10,2.84,14.59s7.08,4,7.08,4A23.59,23.59,0,0,0,280,97.75Z" transform="translate(-70.27 -35.57)"/><path class="cls-65" d="M303.6,118a5.62,5.62,0,0,1,2.94.5c.88.67,4.1,3.79,8.18,4.65s6.8-2.62,7.67-2.8,1.82,1.05,1.82,1.05a3.43,3.43,0,0,0-2.49-2.06s-.86,3.27-6.77,2.15-8.41-3.74-8.41-3.74l-.3-.54A16.34,16.34,0,0,0,303.6,118Z" transform="translate(-70.27 -35.57)"/><path class="cls-66" d="M294.89,87.41l.08-.63s5.89-10.34,17.54-10.62,14.29,7,14.29,7L329,79.9l-4.92-10-34.24-.56-8.34,6.72-1.05,16.47,3.71,21.74,9,4.8,2.54-2.25c-.94-7.28-6.35-13.93-6.35-13.93l3.95-2.74s10.13,4.9,16,3.43c0,0,4.41-12.85,4.15-22.38C313.42,81.2,298.41,83.42,294.89,87.41Z" transform="translate(-70.27 -35.57)"/><path class="cls-67" d="M294.37,88.17s.57-3.72,6.85-5.21c7-1.66,12.69-3.06,12.69-3.06s-1.24,4.08-3.57,5.61c0,0-7.41-.27-11.16.59S294.37,88.17,294.37,88.17Z" transform="translate(-70.27 -35.57)"/><path class="cls-67" d="M326.8,83.18s-3.56,2.74-6,9.27c0,0,2.32-3,4.45-3a1.23,1.23,0,0,1,1.26,1.18,1.36,1.36,0,0,1,0,.29A13.69,13.69,0,0,0,326.8,83.18Z" transform="translate(-70.27 -35.57)"/><path class="cls-68" d="M296.72,98.7s.38-7.86,8-9.85a16,16,0,0,1,3,7.58S303.73,95.67,296.72,98.7Z" transform="translate(-70.27 -35.57)"/><path class="cls-69" d="M318.7,101.83s.62-6.26,4.21-8.57c0,0,2.45,1.83,2.2,7.07C325.11,100.33,323,99.61,318.7,101.83Z" transform="translate(-70.27 -35.57)"/><path class="cls-70" d="M296.72,98.7s2.49,3.07,9.47,3.67a11,11,0,0,0,1.2-6S301,95.77,296.72,98.7Z" transform="translate(-70.27 -35.57)"/><path class="cls-70" d="M318.7,101.83v.92s1.07,2.24,4.92,2.62A10.82,10.82,0,0,0,325,100.3S322.52,99.68,318.7,101.83Z" transform="translate(-70.27 -35.57)"/><path class="cls-71" d="M304.18,96.22a8.6,8.6,0,0,0-1.61,5.55,27.61,27.61,0,0,0,3.62.6,9.39,9.39,0,0,0,1.2-6A9.61,9.61,0,0,0,304.18,96.22Z" transform="translate(-70.27 -35.57)"/><path class="cls-71" d="M322.35,100.4s-1,1.08-1.19,4.37a7.46,7.46,0,0,0,2.46.6A9.05,9.05,0,0,0,325,100.3,4.42,4.42,0,0,0,322.35,100.4Z" transform="translate(-70.27 -35.57)"/><path class="cls-67" d="M303.6,102s-.63-4.25,1.8-5.87l2,.25a8.6,8.6,0,0,1-1.2,6S304.21,102.14,303.6,102Z" transform="translate(-70.27 -35.57)"/><path class="cls-67" d="M323.23,100.22a18,18,0,0,0-1.32,4.83,5.56,5.56,0,0,0,1.71.32A8.28,8.28,0,0,0,325,100.3,4.09,4.09,0,0,0,323.23,100.22Z" transform="translate(-70.27 -35.57)"/><path class="cls-72" d="M296.72,98.7s4.64-2.7,12.55-1.16l-1.47-1.11A13.22,13.22,0,0,0,296.72,98.7Z" transform="translate(-70.27 -35.57)"/><path class="cls-72" d="M318.7,101.83a12.45,12.45,0,0,1,8.06-.93L325,99.61S322.06,99.13,318.7,101.83Z" transform="translate(-70.27 -35.57)"/><path class="cls-12" d="M301.74,98.7a2.75,2.75,0,0,1,2.4.88A2.19,2.19,0,0,1,301.74,98.7Z" transform="translate(-70.27 -35.57)"/><path class="cls-12" d="M320.4,102.37s2-.39,2.66.52C323.06,102.89,322,103.61,320.4,102.37Z" transform="translate(-70.27 -35.57)"/><path class="cls-73" d="M297.18,99.16a18.22,18.22,0,0,0,9.39,4.45l.15-2.1-.53.89S300.64,102,297.18,99.16Z" transform="translate(-70.27 -35.57)"/><path class="cls-73" d="M318.7,102.75s.64,2.3,5.34,3.34l-.15-1.12-.27.4S320.28,104.94,318.7,102.75Z" transform="translate(-70.27 -35.57)"/><path class="cls-74" d="M309.27,112a16.76,16.76,0,0,1,5,0c3.22.38,6.85,1.26,8.82,0,0,0-2.62,2.63-4.9,3s-5.75-1.6-5.75-1.6h-1.51A4.18,4.18,0,0,1,309.27,112Z" transform="translate(-70.27 -35.57)"/><path class="cls-75" d="M311.12,113.42a2.47,2.47,0,0,1,1.45-.38c.66.13,1.34,1.09,1.34,1.09A6.63,6.63,0,0,0,311.12,113.42Z" transform="translate(-70.27 -35.57)"/><path class="cls-76" d="M323.06,112c.85-.82-3.51-8.59-5.6-8.87s-4,8.7-4,8.7,2.9.41,5.71.78S323.06,112,323.06,112Z" transform="translate(-70.27 -35.57)"/><path class="cls-77" d="M326.18,87.53c-1.18-.15-5.35,4.92-5.35,4.92s-2.65,8.21-2.13,10.64,7,3.73,7,3.73l.27-.43h0a12.59,12.59,0,0,1-.79-2.46c-.51-2.52.58-8.27,1.37-13a9.84,9.84,0,0,0,.29-1.87C326.83,88.31,326.72,87.61,326.18,87.53Z" transform="translate(-70.27 -35.57)"/><path class="cls-78" d="M326,120.87c-1.33-2.78-.51-4.23-12.06-5.74-16.35-2.15-17.75,2.84-20.53,2.08a2.19,2.19,0,0,1-.33-.12c-3-1.17-10.1-8.14-10.28-17.53-.19-9.76,6.35-16.68,6.35-16.68-2.37-2-3.32-7.76-.76-10.23s6.92-1.89,17.62-.76,10.71.48,10.71.48c3.4.87,5.35,4.06,5.9,5.08.11.2.16.32.16.32l1.33-1.23A17.38,17.38,0,0,1,327,87.43s5.87-11.94,5.2-13.63a45.09,45.09,0,0,0-4.82-8h0s-.95-9.09-3.79-9.09-15,2.74-15,2.74a17.33,17.33,0,0,0,1.14-6.72l-.05.05c-4,3.55-7.83,3.94-13.31,6.48A13.92,13.92,0,0,0,291.26,63l-.37.44-.39.47a16.39,16.39,0,0,1-1.24,1.47l-.06.06h0a16,16,0,0,1-1.59,1.49c-3.6,2.93-11.52,4.89-12.47,8s1.2,7.32,2.34,11.68a23.65,23.65,0,0,1,.61,8.21,16.12,16.12,0,0,1,2.52,12c-1.11,6.37-3.54,7.41-3.54,7.41a10.9,10.9,0,0,0-.9,6.79c3.5,13.92,18,22.21,18,22.21,12.88,4.8,21.35,2.71,21.35,2.71h0c9.37-6.11,12.58-26.33,12.72-27.27C328.08,118.91,326.34,121.61,326,120.87Zm-5.78,12.89c-2.27-.38-2.75-6.13-3.5-6.89s-4.87-.44-4.87-.44-3.79,4.3-5.3,4.42-9.6-3.16-7.85-8.08,7.85-5.56,7.85-5.56a14.79,14.79,0,0,0,7.89,3c4.74.31,6.45-.56,7-.81s3.62,1.13,3.54,5.43c0,3-2.46,9.31-4.74,8.93Z" transform="translate(-70.27 -35.57)"/><path class="cls-79" d="M319.62,104.82s4.08,5.07,3.69,7c-.42,2.09-5.15,3.2-5.15,3.2s3.79-1.31,4.57-3.2A25.56,25.56,0,0,0,319.62,104.82Z" transform="translate(-70.27 -35.57)"/><path class="cls-80" d="M327,87.43a17.38,17.38,0,0,0-2.94-10.89,29.06,29.06,0,0,0,3.31-10.71h0a36.7,36.7,0,0,1,1.54,7.1l3.28.86C332.91,75.49,327,87.43,327,87.43Z" transform="translate(-70.27 -35.57)"/><path class="cls-81" d="M322.61,77.45c-.55-1-2.5-4.21-5.9-5.08,0,0,0,.66-10.71-.48s-15-1.7-17.62.72-1.61,8.24.76,10.23c0,0-6.54,6.92-6.35,16.68.18,9.39,7.27,16.36,10.28,17.53l-.14,1s.53,21.5,5.76,23.21,16.06.82,17.07,1.83-.14,2.61-.24,2.76h0s-8.47,2.09-21.35-2.71c0,0-14.48-8.29-18-22.21a10.9,10.9,0,0,1,.9-6.79s2.43-1,3.54-7.41a16.12,16.12,0,0,0-2.52-12,23.65,23.65,0,0,0-.61-8.21c-1.14-4.36-3.29-8.59-2.34-11.68a13.63,13.63,0,0,0,10-2.21s1.06-1.47,5.75-2.23,23.54,1.14,23.54,1.14a16.25,16.25,0,0,0-5.87-2.61c-3.76-1-16.6.16-18,.27,1.47-.26,16-2.76,17.69-2.26s8.06,3.41,8.06,3.41c-.5-2.74-6.14-9.74-6.14-9.74A88.54,88.54,0,0,0,297,61.85a17,17,0,0,0-7.7,3.54l1.24-1.47.39-.47.37-.44,1.82-.31L302.23,59c3.07-1.64,7-5.7,7.48-6.2l.05-.05a17.33,17.33,0,0,1-1.14,6.72C316.34,58.53,319,59,319,59,322.49,64,322.61,77.45,322.61,77.45Z" transform="translate(-70.27 -35.57)"/><path class="cls-82" d="M294.16,143.23a48.23,48.23,0,0,1,11.87-.84c7.15.29,11.25.32,9.48,3.55C315.51,145.94,306.54,148,294.16,143.23Z" transform="translate(-70.27 -35.57)"/><path class="cls-83" d="M319,59s4.34-1.69,6.06-1.42a3.37,3.37,0,0,0-1.39-1.09c-.71-.19-15,3-15,3S317.56,58.44,319,59Z" transform="translate(-70.27 -35.57)"/><path class="cls-84" d="M310.17,60.61s-.34,4.73-1.85,6.44l-17.69,2.26-5.19-.92A12.83,12.83,0,0,0,289.65,65C291.86,62.39,303.4,59.86,310.17,60.61Z" transform="translate(-70.27 -35.57)"/><path class="cls-85" d="M327.41,65.83A39.41,39.41,0,0,1,329,72.94l3.28.86A23.64,23.64,0,0,0,327.41,65.83Z" transform="translate(-70.27 -35.57)"/><path class="cls-86" d="M279.21,106.09s-1.25-6-4.3-8.92a7.15,7.15,0,0,0-6.52-2s.95,11.07,1.94,13.77,2.51,3.41,2.51,3.41a8.51,8.51,0,0,1-2.41-5.53c-.29-3.66-.38-8.83.42-9.44s4.06,1.78,4.06,1.78a10.82,10.82,0,0,0-1.64,4.52c-.62,3.27,1.66,5.64,2.51,5.59s0-3.78.1-4.85S277.91,103.61,279.21,106.09Z" transform="translate(-70.27 -35.57)"/><path class="cls-87" d="M276.16,98.68a7.47,7.47,0,0,0-3,6.67c.36,4.49,2.93,4.29,2.94,3.35s-.49-3.37-.23-4.74,2.47-.75,2.47-.75A31.45,31.45,0,0,0,276.16,98.68Z" transform="translate(-70.27 -35.57)"/><path class="cls-88" d="M328.24,118.66s-4.14,18.87-12.73,27.28C315.51,145.94,325.31,142.09,328.24,118.66Z" transform="translate(-70.27 -35.57)"/><path class="cls-88" d="M323.65,56.5s2.18,1.7,2.59,7.59-2.14,12.45-2.14,12.45a23.73,23.73,0,0,0,3.6-10.27C328,60.9,325.38,57.18,323.65,56.5Z" transform="translate(-70.27 -35.57)"/><path class="cls-89" d="M297.21,68.85a51,51,0,0,0,10.59,2.21l6.68.6s-2.23-2.16-7-2.81A47.65,47.65,0,0,0,297.21,68.85Z" transform="translate(-70.27 -35.57)"/><path class="cls-90" d="M321.61,119.07a3.8,3.8,0,0,1,3.37,3,25.66,25.66,0,0,1,1,4.5l.85-3.32s-1.11-4.21-2.27-5.15c-.84-.69-2.28-1.38-3-1.21Z" transform="translate(-70.27 -35.57)"/><path class="cls-91" d="M315.1,116l.41,3.6a12.67,12.67,0,0,0,4.89-.57l.35-2.18A27.65,27.65,0,0,0,315.1,116Z" transform="translate(-70.27 -35.57)"/><path class="cls-88" d="M328.53,162.61s17.23,12.58,19.46,16.91,3.14,17.9,6.17,23.78c0,0-2.07-9.61-3.52-17.15s-1.1-7.64-1.91-9.48S335.06,165.85,328.53,162.61Z" transform="translate(-70.27 -35.57)"/><path class="cls-88" d="M325.44,232.61s-8.3,35.55-7.92,37.95,5.75,7.3,6,8.64c0,0-4.11,5.5-3.92,6.72s7.2,8.92,7,11.31c-.05.69-4.6,8.19-4.6,8.19s5.14-7.37,5.39-8.55-6.29-11-6.49-12c-.49-2.59,3.27-4.49,3.4-6.2s-5.1-5.87-5.14-8.65S325.44,232.61,325.44,232.61Z" transform="translate(-70.27 -35.57)"/><path class="cls-88" d="M327.13,317.34S345.08,358,351.2,398.61C351.2,398.61,350.18,359,327.13,317.34Z" transform="translate(-70.27 -35.57)"/><path class="cls-76" d="M213.32,154.41s-4.64-1-6.57-5-.67-9.92-.67-9.92a102.76,102.76,0,0,0,5.45,9.36C213.34,151.19,213.83,153.9,213.32,154.41Z" transform="translate(-70.27 -35.57)"/><path class="cls-12" d="M262.32,203.53h-.93l-.53-.07a1.92,1.92,0,0,1-.48-.15,1,1,0,0,1-.64-1c-.13-2.12-.26-4.24-.37-6.36a.79.79,0,0,1,.1-.45.86.86,0,0,1,.33-.27,3.65,3.65,0,0,1,.92-.29,10.93,10.93,0,0,1,1.15-.13,3.47,3.47,0,0,1,2.18.49,2.17,2.17,0,0,1,.83,1.78,2,2,0,0,1-.24,1.06,1.66,1.66,0,0,1-.73.68,1.77,1.77,0,0,1,.93.66,2.09,2.09,0,0,1,.42,1.25,2.44,2.44,0,0,1-.71,2A3.5,3.5,0,0,1,262.32,203.53Zm-.79-1.88a1.31,1.31,0,0,0,.39,0h.45a1.12,1.12,0,0,0,.7-.26.85.85,0,0,0,.26-.72.78.78,0,0,0-.27-.62,1.11,1.11,0,0,0-.73-.16h-.89Zm-.17-3.33h.79a.76.76,0,0,0,.84-.9.74.74,0,0,0-.27-.57,1,1,0,0,0-.75-.24h-.38l-.33.06Z" transform="translate(-70.27 -35.57)"/><path class="cls-12" d="M268.14,203l-.35.09a1.76,1.76,0,0,1-.46.06,1.55,1.55,0,0,1-.43,0,.63.63,0,0,1-.32-.15.85.85,0,0,1-.21-.32,1.71,1.71,0,0,1-.09-.55l-.21-5.56.35-.09a1.84,1.84,0,0,1,.47-.06,1.55,1.55,0,0,1,.43,0,.68.68,0,0,1,.33.16.69.69,0,0,1,.21.32,1.71,1.71,0,0,1,.09.55C268,199.36,268.07,201.2,268.14,203Zm-2.23-8.35a1.38,1.38,0,0,1,.25-.88.89.89,0,0,1,.72-.37.93.93,0,0,1,.76.33,1.5,1.5,0,0,1,.05,1.73.9.9,0,0,1-.72.38.87.87,0,0,1-.75-.33,1.35,1.35,0,0,1-.31-.86Z" transform="translate(-70.27 -35.57)"/><path class="cls-12" d="M275.27,201.54a1.2,1.2,0,0,1-.11.62,1.25,1.25,0,0,1-.36.4,2.71,2.71,0,0,1-.37.21,2.92,2.92,0,0,1-.49.19l-.56.13a2.24,2.24,0,0,0-.58,0,4,4,0,0,1-1.45-.23,3,3,0,0,1-1.19-.77,3.84,3.84,0,0,1-.83-1.31A5.57,5.57,0,0,1,269,199a5.43,5.43,0,0,1,.26-2,4,4,0,0,1,.82-1.4,3.44,3.44,0,0,1,1.19-.84,3.56,3.56,0,0,1,1.4-.3,2.89,2.89,0,0,1,1.65.39,1.25,1.25,0,0,1,.62,1.06,1.29,1.29,0,0,1-.13.61,1.42,1.42,0,0,1-.32.41,4.7,4.7,0,0,0-.69-.39,2.22,2.22,0,0,0-.92-.18,1.8,1.8,0,0,0-1.44.68,2.74,2.74,0,0,0-.49,1.82,3.57,3.57,0,0,0,.17,1.07,2.16,2.16,0,0,0,.41.74,1.6,1.6,0,0,0,.58.42,1.62,1.62,0,0,0,.69.12,1.52,1.52,0,0,0,.42-.06.84.84,0,0,0,.27-.13v-1.27h-1.15a1.63,1.63,0,0,1-.13-.39,1.79,1.79,0,0,1-.07-.51,1.1,1.1,0,0,1,.16-.71.56.56,0,0,1,.45-.22h1.83a.6.6,0,0,1,.51.21,1,1,0,0,1,.19.63Z" transform="translate(-70.27 -35.57)"/><path class="cls-12" d="M282.39,201.51a1.32,1.32,0,0,1-.12.62,1.37,1.37,0,0,1-.38.38,1.36,1.36,0,0,1-.37.21,4.24,4.24,0,0,1-.5.18,3.47,3.47,0,0,1-.56.11,5.61,5.61,0,0,1-.58,0,3.75,3.75,0,0,1-1.44-.26,3.17,3.17,0,0,1-1.17-.78,3.7,3.7,0,0,1-.8-1.33,5.23,5.23,0,0,1-.31-1.84,5.33,5.33,0,0,1,.3-1.94,4.16,4.16,0,0,1,.84-1.38,3.66,3.66,0,0,1,1.2-.82,3.6,3.6,0,0,1,1.41-.26,2.86,2.86,0,0,1,1.64.42,1.24,1.24,0,0,1,.6,1.07,1.29,1.29,0,0,1-.48,1,3.49,3.49,0,0,0-.67-.4,2,2,0,0,0-.92-.2,1.79,1.79,0,0,0-1.45.64,2.77,2.77,0,0,0-.53,1.8,3.26,3.26,0,0,0,.15,1.07,2.13,2.13,0,0,0,.4.74,1.42,1.42,0,0,0,.57.43,1.46,1.46,0,0,0,.68.14,1.21,1.21,0,0,0,.42-.05,1.39,1.39,0,0,0,.28-.12v-1.27h-1.15a2.91,2.91,0,0,1-.12-.39,2.22,2.22,0,0,1-.06-.51,1.14,1.14,0,0,1,.17-.7.58.58,0,0,1,.46-.22h1.83a.6.6,0,0,1,.5.22,1,1,0,0,1,.18.63C282.4,199.68,282.39,200.61,282.39,201.51Z" transform="translate(-70.27 -35.57)"/><path class="cls-12" d="M290,201a2,2,0,0,1-.66,1.57,2.49,2.49,0,0,1-1.8.54,3.84,3.84,0,0,1-.83-.09,2.16,2.16,0,0,1-.65-.26,1.44,1.44,0,0,1-.42-.43,1.31,1.31,0,0,1-.15-.61,1.25,1.25,0,0,1,.12-.54,1.18,1.18,0,0,1,.26-.37,3.81,3.81,0,0,0,.71.4,2.39,2.39,0,0,0,.92.18.82.82,0,0,0,.51-.11.35.35,0,0,0,.18-.31.32.32,0,0,0-.12-.3.94.94,0,0,0-.42-.19l-.32-.08a2.76,2.76,0,0,1-1.38-.75,2,2,0,0,1-.43-1.41,2.3,2.3,0,0,1,.18-.9,2.06,2.06,0,0,1,.51-.66,2,2,0,0,1,.76-.4,3.39,3.39,0,0,1,1-.13,3.86,3.86,0,0,1,.76.1,1.91,1.91,0,0,1,.6.23,1.21,1.21,0,0,1,.41.4,1,1,0,0,1,.13.56,1.4,1.4,0,0,1-.11.53,1.26,1.26,0,0,1-.24.36,1.28,1.28,0,0,0-.25-.15l-.38-.14a2.77,2.77,0,0,0-.41-.12h-.39a1.15,1.15,0,0,0-.55.08.35.35,0,0,0-.2.31.35.35,0,0,0,.1.25,1.17,1.17,0,0,0,.41.18l.33.1a3,3,0,0,1,1.45.85A2,2,0,0,1,290,201Z" transform="translate(-70.27 -35.57)"/><path class="cls-12" d="M291.55,201.34c-.07-.22-.15-.47-.23-.75s-.16-.6-.25-1-.17-.78-.26-1.24-.18-1-.28-1.59a1.3,1.3,0,0,1,.42-.32,1.09,1.09,0,0,1,.56-.12,1,1,0,0,1,.62.21,1.25,1.25,0,0,1,.35.75c.24,1.23.47,2.47.71,3.7h0c.1-.3.2-.63.29-1s.19-.72.29-1.1l.27-1.12c.08-.38.16-.75.22-1.11a1.57,1.57,0,0,1,.87-.22,1,1,0,0,1,.62.23.84.84,0,0,1,.22.71,5.72,5.72,0,0,1-.12.83c-.06.31-.15.64-.24,1s-.22.71-.34,1.08-.27.74-.4,1.1-.28.7-.42,1-.28.61-.41.86a10.83,10.83,0,0,1-.59,1,3.9,3.9,0,0,1-.51.63,1.52,1.52,0,0,1-.48.31,1.35,1.35,0,0,1-.49.07.88.88,0,0,1-.71-.36,1.46,1.46,0,0,1-.3-.88,9.49,9.49,0,0,0,.7-.72,10,10,0,0,0,.65-.81,1.1,1.1,0,0,1-.38-.33A3.88,3.88,0,0,1,291.55,201.34Z" transform="translate(-70.27 -35.57)"/><path class="cls-12" d="M301,201.49a2.09,2.09,0,0,1-.7,1.55,2.51,2.51,0,0,1-1.82.48,5.72,5.72,0,0,1-.83-.12,2.15,2.15,0,0,1-.64-.28,1.24,1.24,0,0,1-.41-.44,1.28,1.28,0,0,1-.12-.61,1.22,1.22,0,0,1,.13-.53,1.54,1.54,0,0,1,.27-.36,5,5,0,0,0,.7.42,2.42,2.42,0,0,0,.91.21.93.93,0,0,0,.52-.09.4.4,0,0,0,.19-.31.35.35,0,0,0-.11-.3,1,1,0,0,0-.42-.2l-.32-.1A2.76,2.76,0,0,1,297,200a2,2,0,0,1-.39-1.41,2.29,2.29,0,0,1,.22-.89,1.79,1.79,0,0,1,.52-.64,2.41,2.41,0,0,1,.77-.38,3.36,3.36,0,0,1,1-.09,3.17,3.17,0,0,1,.75.12,1.86,1.86,0,0,1,.6.25,1.1,1.1,0,0,1,.39.41,1,1,0,0,1,.11.56,1.52,1.52,0,0,1-.12.52,1.24,1.24,0,0,1-.25.35l-.25-.16-.37-.15a2.77,2.77,0,0,0-.41-.12,1.59,1.59,0,0,0-.38-.07,1.33,1.33,0,0,0-.56.07.33.33,0,0,0-.21.31.31.31,0,0,0,.1.24,1,1,0,0,0,.4.2l.32.11a2.88,2.88,0,0,1,1.42.89A2,2,0,0,1,301,201.49Z" transform="translate(-70.27 -35.57)"/><path class="cls-12" d="M303.74,201.37a.61.61,0,0,0,.14.5.74.74,0,0,0,.49.18h.33A1.55,1.55,0,0,0,305,202c.05.11.1.22.14.33a1.62,1.62,0,0,1,0,.44,1.22,1.22,0,0,1-.37.8,1.41,1.41,0,0,1-1.09.24,1.88,1.88,0,0,1-1.4-.62,2.49,2.49,0,0,1-.4-1.76c.13-1.89.25-3.79.37-5.68l.35-.06a1.85,1.85,0,0,1,.47,0,1.14,1.14,0,0,1,.73.26,1.06,1.06,0,0,1,.21.89l0,.78,1.41.1a2.24,2.24,0,0,1,.1.37,1.35,1.35,0,0,1,0,.49,1,1,0,0,1-.21.65.58.58,0,0,1-.46.18l-1-.07A19.48,19.48,0,0,1,303.74,201.37Z" transform="translate(-70.27 -35.57)"/><path class="cls-12" d="M308.68,204.17a3.28,3.28,0,0,1-1.15-.31,2.57,2.57,0,0,1-.88-.73,3.24,3.24,0,0,1-.54-1.14,4.86,4.86,0,0,1-.12-1.57,4.45,4.45,0,0,1,.35-1.48,3,3,0,0,1,.69-1,2.3,2.3,0,0,1,.91-.52,2.59,2.59,0,0,1,1-.11,2.52,2.52,0,0,1,1,.3,2.16,2.16,0,0,1,.76.65,2.3,2.3,0,0,1,.45.93,3.58,3.58,0,0,1,.09,1.13,1,1,0,0,1-.27.67.93.93,0,0,1-.59.25l-2.68.28a1,1,0,0,0,.42.69,1.61,1.61,0,0,0,.82.28,2.32,2.32,0,0,0,.83-.07,2.61,2.61,0,0,0,.67-.27,1,1,0,0,1,.25.4,1.12,1.12,0,0,1-.45,1.35,2.14,2.14,0,0,1-.79.24A5,5,0,0,1,308.68,204.17Zm.13-5.22a1,1,0,0,0-.45.07.9.9,0,0,0-.33.25,1.31,1.31,0,0,0-.21.36,1.89,1.89,0,0,0-.1.41l1.86-.22a1,1,0,0,0-.19-.55A.75.75,0,0,0,308.81,199Z" transform="translate(-70.27 -35.57)"/><path class="cls-12" d="M315,197.86a2.57,2.57,0,0,1,.86.24,2.23,2.23,0,0,1,.69.53,3.15,3.15,0,0,1,.77-.35,2.42,2.42,0,0,1,1-.07,2.45,2.45,0,0,1,.79.22,2,2,0,0,1,.65.49,1.73,1.73,0,0,1,.4.8,2.79,2.79,0,0,1,0,1.15l-.48,4.12h-.81a2.07,2.07,0,0,1-.42-.08.7.7,0,0,1-.29-.19.75.75,0,0,1-.16-.35,1.57,1.57,0,0,1,0-.53c.12-1,.23-2.09.35-3.13a.77.77,0,0,0-.12-.59.66.66,0,0,0-.47-.23,1,1,0,0,0-.61.2v.18c-.16,1.46-.31,2.91-.47,4.37a2,2,0,0,1-.35,0,3.69,3.69,0,0,1-.47,0,1.86,1.86,0,0,1-.41-.08.67.67,0,0,1-.3-.19A.76.76,0,0,1,315,204a1.63,1.63,0,0,1,0-.54c.1-1,.21-2.09.32-3.13a.76.76,0,0,0-.14-.6.67.67,0,0,0-.46-.22.65.65,0,0,0-.34,0l-.25.12c-.15,1.53-.31,3.07-.46,4.61l-.34,0a3.69,3.69,0,0,1-.47,0,2.07,2.07,0,0,1-.42-.08.58.58,0,0,1-.3-.18.89.89,0,0,1-.16-.34,1.63,1.63,0,0,1,0-.54c.12-1.33.25-2.65.37-4a1.06,1.06,0,0,1,.18-.55,1.58,1.58,0,0,1,.37-.36,3,3,0,0,1,1-.43A3.19,3.19,0,0,1,315,197.86Z" transform="translate(-70.27 -35.57)"/><path class="cls-12" d="M325.32,203.77a2,2,0,0,1-.81,1.47,2.59,2.59,0,0,1-1.84.34,3.88,3.88,0,0,1-.82-.18,2.12,2.12,0,0,1-.62-.31,1.28,1.28,0,0,1-.37-.46,1.15,1.15,0,0,1-.08-.61,1.1,1.1,0,0,1,.17-.52,1.81,1.81,0,0,1,.29-.33,3.46,3.46,0,0,0,.67.46,2.36,2.36,0,0,0,.89.27.92.92,0,0,0,.52,0,.37.37,0,0,0,.22-.29.36.36,0,0,0-.1-.31,1,1,0,0,0-.4-.22l-.31-.12a2.68,2.68,0,0,1-1.29-.86,1.93,1.93,0,0,1-.29-1.42,2.13,2.13,0,0,1,.28-.85,1.76,1.76,0,0,1,.56-.59,2.14,2.14,0,0,1,.8-.32,2.8,2.8,0,0,1,1,0,3.76,3.76,0,0,1,.74.16,1.94,1.94,0,0,1,.57.3,1,1,0,0,1,.44,1,1.09,1.09,0,0,1-.16.5,1.22,1.22,0,0,1-.27.33l-.24-.17-.36-.18c-.13-.06-.26-.1-.4-.15l-.37-.09a1.75,1.75,0,0,0-.56,0,.35.35,0,0,0-.16.54,1.5,1.5,0,0,0,.39.22l.32.13a2.86,2.86,0,0,1,1.35,1A1.92,1.92,0,0,1,325.32,203.77Z" transform="translate(-70.27 -35.57)"/><path class="cls-92" d="M356.63,133.22l3.22,91.8a6.76,6.76,0,0,0,6.76,6.53H524.74a6.77,6.77,0,0,0,6.76-6.61l2.21-92.86a6.77,6.77,0,0,0-6.59-6.93h-.21l-163.57,1.07a6.76,6.76,0,0,0-6.71,6.81Z" transform="translate(-70.27 -35.57)"/><path class="cls-93" d="M524.74,231.8H366.61a7,7,0,0,1-7-6.77l-3.22-91.8a7,7,0,0,1,6.74-7.26h.26L527,124.9a7.06,7.06,0,0,1,5,2.1,7,7,0,0,1,2,5.08L531.74,225A7,7,0,0,1,524.74,231.8ZM527,125.4h0l-163.56,1.07a6.51,6.51,0,0,0-6.47,6.57v.18L360.16,225a6.49,6.49,0,0,0,6.51,6.29H524.74a6.55,6.55,0,0,0,6.51-6.36l2.22-92.87a6.52,6.52,0,0,0-6.37-6.67H527Z" transform="translate(-70.27 -35.57)"/><path class="cls-94" d="M356.86,137.9H533.53l.28-4.84a7.43,7.43,0,0,0-7-7.84h-.48l-163.5,1.29a6.12,6.12,0,0,0-6.08,6.18v.07Z" transform="translate(-70.27 -35.57)"/><polygon class="cls-95" points="295.48 109.74 295.48 162.86 349.55 162.86 349.55 109.46 295.48 109.74"/><rect class="cls-96" x="401.81" y="113.3" width="23.52" height="23.52"/><rect class="cls-97" x="429.56" y="113.3" width="23.52" height="23.52"/><rect class="cls-98" x="373.59" y="113.3" width="23.52" height="23.52"/><rect class="cls-99" x="392.93" y="150.54" width="60.15" height="5.63"/><rect class="cls-99" x="377.89" y="159.11" width="75.2" height="1.74"/><rect class="cls-99" x="378.6" y="139.82" width="14.39" height="1.74"/><rect class="cls-99" x="406.38" y="139.82" width="14.39" height="1.74"/><rect class="cls-99" x="434.13" y="139.82" width="14.39" height="1.74"/><rect class="cls-99" x="373.59" y="161.95" width="24.19" height="1.74"/><rect class="cls-99" x="377.89" y="164.75" width="75.2" height="1.74"/><rect class="cls-99" x="373.59" y="167.55" width="79.49" height="1.74"/><rect class="cls-99" x="373.59" y="170.35" width="79.49" height="1.74"/><rect class="cls-99" x="377.89" y="181.67" width="75.2" height="1.74"/><rect class="cls-99" x="373.59" y="184.47" width="79.49" height="1.74"/><rect class="cls-99" x="373.59" y="187.27" width="79.49" height="1.74"/><rect class="cls-99" x="373.59" y="173.15" width="76.3" height="1.74"/><rect class="cls-99" x="377.89" y="175.95" width="75.2" height="1.74"/><rect class="cls-99" x="373.59" y="178.75" width="64.41" height="1.74"/><path class="cls-100" d="M380.9,187.78a15.39,15.39,0,1,1,15.38-15.4h0A15.41,15.41,0,0,1,380.9,187.78Zm0-29.77a14.39,14.39,0,1,0,14.38,14.4v0A14.4,14.4,0,0,0,380.9,158Z" transform="translate(-70.27 -35.57)"/><circle class="cls-12" cx="310.63" cy="136.82" r="8.36"/><path class="cls-100" d="M419.82,160.41A15.39,15.39,0,1,1,435.21,145h0A15.41,15.41,0,0,1,419.82,160.41Zm0-29.77A14.39,14.39,0,1,0,434.21,145a14.39,14.39,0,0,0-14.39-14.39h0Z" transform="translate(-70.27 -35.57)"/><circle class="cls-12" cx="351.76" cy="109.24" r="7.89"/><polygon class="cls-12" points="292.78 95.12 293.91 93.42 299.99 98.74 299.05 100.04 292.78 95.12"/><polygon class="cls-12" points="300.14 95.12 299.02 93.42 292.94 98.74 293.87 100.04 300.14 95.12"/><rect class="cls-12" x="404.54" y="94.57" width="54.44" height="2.73"/><polygon class="cls-101" points="118.05 55.16 118.05 78.79 146.3 79.03 146.69 54.4 118.05 55.16"/><polygon class="cls-102" points="146.69 54.4 148.53 57.51 147.61 79.01 146.3 79.03 146.69 54.4"/><polygon class="cls-12" points="123.1 63.14 125.7 59.35 139.82 71.19 137.65 74.08 123.1 63.14"/><polygon class="cls-12" points="140.18 63.14 137.57 59.35 123.46 71.19 125.62 74.08 140.18 63.14"/><path class="cls-103" d="M254.24,368.79H157.55a7.93,7.93,0,0,1-7.92-7.74l-1.8-79.3a7.92,7.92,0,0,1,7.72-8.1H256.41a7.92,7.92,0,0,1,7.92,7.92v.21l-2.17,79.31A7.92,7.92,0,0,1,254.24,368.79Z" transform="translate(-70.27 -35.57)"/><path class="cls-104" d="M254.24,369H157.55a8.22,8.22,0,0,1-8.17-8l-1.8-79.31a8.16,8.16,0,0,1,8-8.35H256.41a8.15,8.15,0,0,1,8.17,8.15v.24l-2.17,79.31A8.13,8.13,0,0,1,254.24,369ZM155.75,273.9a7.65,7.65,0,0,0-7.67,7.63v.21l1.8,79.31a7.72,7.72,0,0,0,7.67,7.49h96.69a7.64,7.64,0,0,0,7.67-7.46l2.17-79.3a7.67,7.67,0,0,0-7.46-7.88H155.75Z" transform="translate(-70.27 -35.57)"/><rect class="cls-12" x="103.62" y="254.3" width="50.85" height="2.18"/><rect class="cls-12" x="103.62" y="259.59" width="25.42" height="2.18"/><rect class="cls-12" x="103.62" y="264.02" width="25.42" height="2.18"/><rect class="cls-12" x="131.9" y="264.02" width="20.23" height="2.18"/><rect class="cls-12" x="103.62" y="268.44" width="40.99" height="2.18"/><rect class="cls-12" x="103.62" y="272.86" width="14.59" height="2.18"/><rect class="cls-12" x="121.21" y="286.12" width="25.23" height="2.18"/><rect class="cls-12" x="103.62" y="277.28" width="45.73" height="2.18"/><rect class="cls-12" x="103.62" y="281.7" width="35.18" height="2.18"/><rect class="cls-12" x="103.62" y="286.12" width="16.55" height="2.18"/><rect class="cls-12" x="103.62" y="290.54" width="25.42" height="2.18"/><rect class="cls-12" x="103.62" y="294.96" width="7.29" height="2.18"/><rect class="cls-12" x="113.92" y="294.96" width="26.46" height="2.18"/><rect class="cls-12" x="121.21" y="299.25" width="25.23" height="2.18"/><rect class="cls-12" x="103.62" y="299.25" width="16.55" height="2.18"/><rect class="cls-12" x="103.62" y="303.67" width="25.42" height="2.18"/><rect class="cls-12" x="103.62" y="308.1" width="7.29" height="2.18"/><rect class="cls-12" x="113.92" y="308.1" width="26.46" height="2.18"/><path class="cls-105" d="M513.69,107.45a4.47,4.47,0,1,1-4.47-4.47,4.47,4.47,0,0,1,4.47,4.47Z" transform="translate(-70.27 -35.57)"/><path class="cls-106" d="M94.79,211.09a5.57,5.57,0,1,1-5.58-5.56h0A5.56,5.56,0,0,1,94.79,211.09Z" transform="translate(-70.27 -35.57)"/><circle class="cls-107" cx="452.07" cy="71.88" r="4.47"/><circle class="cls-108" cx="163.9" cy="102.61" r="3.16"/><circle class="cls-109" cx="375.56" cy="242.04" r="3.16"/><circle class="cls-110" cx="47.04" cy="273.55" r="2.82"/><path class="cls-111" d="M165.46,281.38h-48.8a7.28,7.28,0,0,1-7.27-7l-1.09-32.09a7.29,7.29,0,0,1,7-7.53h51.12a7.27,7.27,0,0,1,7.27,7.29v.21l-1,32.1A7.28,7.28,0,0,1,165.46,281.38Z" transform="translate(-70.27 -35.57)"/><path class="cls-112" d="M165.46,281.61h-48.8a7.5,7.5,0,0,1-7.52-7.28l-1.09-32.09a7.56,7.56,0,0,1,7.31-7.79h51.09A7.52,7.52,0,0,1,174,242v.22l-1,32.1A7.49,7.49,0,0,1,165.46,281.61ZM115.58,235a7,7,0,0,0-7,7,2.61,2.61,0,0,0,0,.28l1.09,32.09a7,7,0,0,0,7,6.8h48.8a7,7,0,0,0,7-6.82l1-32.09a7,7,0,0,0-6.75-7.25H115.58Z" transform="translate(-70.27 -35.57)"/><polygon class="cls-12" points="59.4 210.68 47.37 224.63 59.63 235.03 59.63 229.66 52.54 223.52 59.12 216.08 59.4 210.68"/><polygon class="cls-12" points="80.55 211.31 92.59 225.25 80.33 235.65 80.33 230.29 87.42 224.15 79.53 215.8 80.55 211.31"/><polygon class="cls-12" points="62.03 235.03 72.51 211.93 77.44 211.93 65.56 235.03 62.03 235.03"/><path class="cls-113" d="M493.79,347.43H432.74a9.1,9.1,0,0,1-9.1-8.8l-1.36-40.15a9.13,9.13,0,0,1,8.82-9.42H495a9.11,9.11,0,0,1,9.11,9.13v.26l-1.23,40.16A9.11,9.11,0,0,1,493.79,347.43Z" transform="translate(-70.27 -35.57)"/><path class="cls-112" d="M493.79,347.68H432.74a9.32,9.32,0,0,1-9.35-9L422,298.53a9.35,9.35,0,0,1,9-9.67h64a9.36,9.36,0,0,1,9.36,9.36v.28l-1.23,40.12A9.33,9.33,0,0,1,493.79,347.68Zm-62.4-58.37a8.86,8.86,0,0,0-8.86,8.88v.28l1.36,40.14a8.82,8.82,0,0,0,8.85,8.56h61.05a8.82,8.82,0,0,0,8.86-8.59l1.23-40.15a8.86,8.86,0,0,0-8.59-9.13h-63.9Z" transform="translate(-70.27 -35.57)"/><rect class="cls-99" x="364.25" y="259.95" width="55.91" height="33.21"/><polygon class="cls-12" points="387.25 268.19 387.25 284.92 401.54 275.79 387.25 268.19"/><rect class="cls-99" x="364.25" y="299.28" width="55.91" height="3.04"/><rect class="cls-12" x="364.25" y="299.28" width="14.47" height="3.04"/><path class="cls-114" d="M393.55,285l-2.91,8.34C392.25,288.76,394.57,285.77,393.55,285Zm-2.91,8.34-2.93,8.35c.74-.22,1.31-3.73,2.93-8.35Zm2.91-8.34-2.91,8.34C392.25,288.76,394.57,285.77,393.55,285Zm-2.91,8.34-2.93,8.35c.74-.22,1.31-3.73,2.93-8.35Zm8.42,7.24,2.84,1.6,3.06-8.35-3.28-.55c.06-.31.11-.62.15-.92a21.56,21.56,0,0,0,.28-4.17l3.43-2.15L404,278.71l-3.29,3.15a9.72,9.72,0,0,0-1.71-2.45,6,6,0,0,0-.57-.56l2-4.64-5.35-1.74h0l-1.28,4.68a8.74,8.74,0,0,0-3.62.85l-.59-4.42L383.67,278,385,282a22.14,22.14,0,0,0-2.87,4.18l-2.84-1.6-3.06,8.35,3.28.55a22.26,22.26,0,0,0-.43,5.09l-3.43,2.15,1.56,7.36,3.29-3.14a9.08,9.08,0,0,0,2.25,3l-2,4.65,5.26,2,.81-3,.56-2a9.11,9.11,0,0,0,3.63-.85l.58,4.42,5.89-4.46-1.36-3.91a22.14,22.14,0,0,0,2.31-3.21A7.06,7.06,0,0,0,399.06,300.61Zm-8.42-7.24c-1.62,4.62,0,9.37-2.93,8.35s-4-5.6-2.38-10.2,5.3-7.52,8.22-6.49-1.3,3.73-2.91,8.34Zm2.91-8.34-2.91,8.34C392.25,288.76,394.57,285.77,393.55,285Zm-2.91,8.34-2.93,8.35c.74-.22,1.31-3.73,2.93-8.35Z" transform="translate(-70.27 -35.57)"/><path class="cls-115" d="M401.9,302.21l3.06-8.35-3.13-1.47-.5-.24.33-4.6,3.46-1.69L404,278.71l-7.55-2.45,1.39,3.31,2.63-5.36-5.35-1.74-2.19-.71-5.27-2.06-1,3.6L382,271.12l-5.86,4.49,1.78,4.82-5.5,15.27-2.72,9.91,5.23.57-1.71,3.93,5.28,2.06,7.54,2.45-1.21-2.42-.76-1.45,2.78.91,4.77,1.55,5.89-4.46-3.64-4.29,4.59-2.83Zm-16.57-10.69c1.62-4.61,5.3-7.52,8.22-6.49l-2.91,8.34-2.93,8.35C384.78,300.69,383.71,296.12,385.33,291.52Z" transform="translate(-70.27 -35.57)"/><path class="cls-116" d="M394.35,299.75l3.06-8.35-3.28-.55a23.42,23.42,0,0,0,.44-5.08l3.4-2.16-1.57-7.36-3.29,3.14a9,9,0,0,0-2.25-3l2-4.64-5.27-2.06-1.37,5a8.88,8.88,0,0,0-3.62.84l-.58-4.41-5.84,4.49,1.35,3.92a22.21,22.21,0,0,0-2.87,4.19l-2.84-1.6-3.05,8.35,3.28.55a22.23,22.23,0,0,0-.44,5.08l-3.43,2.15,1.56,7.36,3.29-3.14a9.22,9.22,0,0,0,2.25,3l-2,4.64,5.27,2.05,1.36-5a8.94,8.94,0,0,0,3.63-.85l.58,4.42,5.89-4.46-1.36-3.91a22.21,22.21,0,0,0,2.87-4.19Zm-14.19-.49c-2.93-1-4-5.6-2.38-10.2s5.3-7.52,8.23-6.49,4,5.59,2.38,10.2-5.3,7.51-8.23,6.49Z" transform="translate(-70.27 -35.57)"/><polygon class="cls-117" points="335.27 250.5 327.73 248.05 324.3 250.2 331.84 252.65 335.27 250.5"/><polygon class="cls-118" points="327.28 273.14 319.73 270.68 318.37 266.77 325.92 269.23 327.28 273.14"/><polygon class="cls-117" points="320.63 240.83 324.76 242.03 326.16 240.69 328.91 241.58 330.18 238.64 322.64 236.18 320.63 240.83"/><path class="cls-117" d="M379.9,307.14l4,1.64-.32-2.49A7.07,7.07,0,0,1,379.9,307.14Z" transform="translate(-70.27 -35.57)"/><path class="cls-117" d="M380.51,284.51l6.66,3.52a10.11,10.11,0,0,1,1.71-1.81S387.14,278.88,380.51,284.51Z" transform="translate(-70.27 -35.57)"/><polygon class="cls-119" points="157.49 0 163.9 12.85 159.62 14.8 153.62 3 157.49 0"/><polygon class="cls-120" points="13.04 299.34 18.98 305.86 21.31 303.17 15.7 297 13.04 299.34"/><polygon class="cls-121" points="314.82 78.41 308.83 82.04 306.44 77.49 312.97 73.68 314.82 78.41"/><polygon class="cls-121" points="344.26 308.12 335.69 314.21 333.29 309.67 341.61 304.81 344.26 308.12"/><polygon class="cls-122" points="332.94 47.34 331.49 13.68 375.56 13.68 373.75 47.24 332.94 47.34"/><polygon class="cls-123" points="331.49 13.68 330.17 15.66 331.49 47.34 332.94 47.34 331.49 13.68"/><polygon class="cls-12" points="346.12 20.4 339.21 19.66 340.15 42.72 346.12 42.14 346.12 39.75 342.66 39.83 342.27 22.05 346.12 22.16 346.12 20.4"/><polygon class="cls-12" points="360.28 20.4 367.2 19.66 366.25 42.72 360.28 42.14 360.28 39.75 363.74 39.83 364.14 22.05 360.28 22.16 360.28 20.4"/><polygon class="cls-124" points="29.05 121.02 30.04 98.07 0 98.07 1.23 120.95 29.05 121.02"/><polygon class="cls-125" points="30.04 98.07 30.94 99.43 30.04 121.02 29.05 121.02 30.04 98.07"/><path class="cls-12" d="M88.74,138.26a20.86,20.86,0,0,1,3.87.14c.58.27-.15,5.64-.15,5.64l1.31,1.2-1.22,1.19s.06,5.44-.71,5.9-3.43,0-3.43,0V151a7.6,7.6,0,0,0,2.56-.16c.36-.29.33-5,.33-5l.58-.63-.58-.69s.1-3.39,0-4.32c0-.62-2.56-.65-2.56-.65Z" transform="translate(-70.27 -35.57)"/><path class="cls-12" d="M81.19,138.26a20.86,20.86,0,0,0-3.87.14c-.59.27.15,5.64.15,5.64l-1.32,1.2,1.23,1.19s-.06,5.44.71,5.9,3.42,0,3.42,0V151a7.48,7.48,0,0,1-2.54-.16c-.36-.29-.33-5-.33-5l-.58-.63.58-.69s-.11-3.39,0-4.32c0-.62,2.56-.65,2.56-.65Z" transform="translate(-70.27 -35.57)"/><path class="cls-93" d="M352.83,85.94l-7.36-19.27,19.09,4Zm-6.57-18.59L353,84.93,363.67,71Z" transform="translate(-70.27 -35.57)"/><rect class="cls-93" x="403.15" y="354.3" width="10.94" height="0.5" transform="translate(-189.18 438.95) rotate(-53.76)"/><polygon class="cls-93" points="274.62 242.2 267.67 233.55 268.06 233.24 275.01 241.89 274.62 242.2"/><polygon class="cls-93" points="60.28 302.92 46.42 292.86 46.71 292.46 60.58 302.52 60.28 302.92"/><rect class="cls-93" x="115.2" y="333.02" width="17.13" height="0.5" transform="translate(-286.61 194.19) rotate(-52.7)"/><rect class="cls-93" x="103.55" y="183.33" width="0.5" height="10.14" transform="translate(-181.53 157.09) rotate(-62.28)"/><polygon class="cls-93" points="382.75 34.41 382.38 34.08 392.75 22.25 393.12 22.58 382.75 34.41"/><rect class="cls-93" x="253.4" y="98.16" width="0.5" height="10.41" transform="translate(-89.76 88.23) rotate(-26.45)"/><rect class="cls-93" x="176.1" y="260.35" width="15.54" height="0.5" transform="translate(-194.64 143.1) rotate(-39.91)"/></g></g></svg>